<?xml version="1.0" encoding="UTF-8"?>
<svg xmlns="http://www.w3.org/2000/svg" xmlns:xlink="http://www.w3.org/1999/xlink" width="40px" height="40px" viewBox="0 0 40 40" version="1.1">
<g id="surface1">
<path style=" stroke:none;fill-rule:nonzero;fill:rgb(0.392157%,0%,0%);fill-opacity:1;" d="M 22.089844 40.128906 C 14.726562 40.128906 7.429688 40.128906 0.128906 40.128906 C 0.128906 26.796875 0.128906 13.464844 0.128906 0.128906 C 13.464844 0.128906 26.796875 0.128906 40.128906 0.128906 C 40.128906 13.464844 40.128906 26.796875 40.128906 40.128906 C 34.140625 40.128906 28.148438 40.128906 22.089844 40.128906 M 19.085938 6.644531 C 19.085938 6.644531 19.078125 6.652344 19.082031 6.738281 C 19.140625 6.84375 19.195312 6.949219 19.234375 7.039062 C 19.234375 7.039062 19.242188 7.054688 19.160156 7.089844 C 19.136719 7.203125 19.109375 7.316406 19.074219 7.488281 C 19.074219 7.488281 19.058594 7.542969 18.972656 7.570312 C 18.957031 7.792969 18.941406 8.015625 18.925781 8.234375 C 18.988281 8.265625 19.050781 8.296875 19.113281 8.328125 C 19.277344 8.160156 19.441406 7.988281 19.609375 7.816406 C 19.609375 7.816406 19.609375 7.816406 19.667969 7.800781 C 19.707031 7.78125 19.734375 7.75 19.785156 7.675781 C 19.785156 7.675781 19.832031 7.652344 19.933594 7.671875 C 20.210938 7.828125 20.480469 7.996094 20.765625 8.128906 C 20.882812 8.183594 21.039062 8.160156 21.253906 8.167969 C 21.273438 8.09375 21.289062 8.019531 21.382812 7.917969 C 21.433594 7.8125 21.558594 7.640625 21.53125 7.613281 C 21.105469 7.1875 21.363281 6.914062 21.703125 6.613281 C 21.828125 6.503906 21.863281 6.289062 21.953125 6.058594 C 21.953125 6.058594 21.941406 5.996094 21.9375 5.90625 C 21.539062 5.746094 21.144531 5.582031 20.820312 5.453125 C 20.625 5.222656 20.453125 5.019531 20.253906 4.765625 C 20.253906 4.765625 20.246094 4.703125 20.253906 4.625 C 20.199219 4.582031 20.144531 4.539062 20.089844 4.496094 C 20.066406 4.566406 20.042969 4.636719 19.980469 4.78125 C 19.945312 4.882812 19.910156 4.984375 19.800781 5.140625 C 19.785156 5.257812 19.769531 5.378906 19.746094 5.546875 C 19.746094 5.546875 19.726562 5.597656 19.628906 5.617188 C 19.148438 5.683594 18.667969 5.75 18.183594 5.8125 C 18.167969 5.910156 18.152344 6.003906 18.132812 6.097656 C 18.363281 6.191406 18.59375 6.285156 18.882812 6.410156 C 18.921875 6.433594 18.945312 6.46875 18.976562 6.574219 C 19 6.609375 19.035156 6.636719 19.085938 6.644531 M 23.261719 8.933594 C 23.230469 8.757812 23.488281 8.425781 22.976562 8.4375 C 22.917969 8.503906 22.859375 8.566406 22.703125 8.621094 C 22.636719 8.667969 22.527344 8.703125 22.511719 8.761719 C 22.390625 9.238281 22.21875 9.570312 21.601562 9.421875 C 21.375 9.367188 21.085938 9.558594 20.6875 9.683594 C 20.914062 9.949219 21.085938 10.121094 21.222656 10.316406 C 21.398438 10.5625 21.550781 10.824219 21.644531 11.125 C 21.652344 11.808594 21.105469 12.382812 20.449219 12.382812 C 19.949219 12.382812 19.453125 12.382812 18.953125 12.28125 C 18.867188 12.140625 18.78125 12 18.699219 11.765625 C 18.6875 11.59375 18.695312 11.417969 18.660156 11.25 C 18.609375 10.980469 18.527344 10.714844 18.558594 10.433594 C 18.941406 10.28125 19.324219 10.132812 19.707031 9.980469 C 19.703125 9.90625 19.699219 9.832031 19.695312 9.757812 C 19.382812 9.675781 19.0625 9.515625 18.753906 9.53125 C 18.085938 9.5625 17.722656 9.339844 17.675781 8.644531 C 17.667969 8.519531 17.507812 8.351562 17.386719 8.3125 C 17.304688 8.285156 17.113281 8.425781 17.050781 8.535156 C 16.886719 8.824219 16.761719 9.140625 16.589844 9.515625 C 16.332031 9.515625 16.019531 9.46875 15.734375 9.53125 C 15.535156 9.578125 15.371094 9.777344 15.191406 9.90625 C 15.320312 10.058594 15.425781 10.242188 15.582031 10.351562 C 15.761719 10.476562 15.988281 10.539062 16.089844 10.582031 C 16.03125 11.109375 16 11.527344 15.925781 11.933594 C 15.898438 12.085938 15.761719 12.328125 15.664062 12.335938 C 15.054688 12.378906 14.4375 12.421875 13.839844 12.34375 C 13.65625 12.316406 13.535156 11.90625 13.359375 11.691406 C 13.304688 11.621094 13.125 11.640625 13.085938 11.574219 C 12.945312 11.324219 12.800781 11.066406 12.738281 10.796875 C 12.71875 10.714844 12.972656 10.460938 13.066406 10.476562 C 13.589844 10.570312 13.601562 10.203125 13.753906 9.777344 C 12.949219 9.703125 12.25 9.472656 11.65625 8.859375 C 11.5625 8.960938 11.386719 9.058594 11.386719 9.160156 C 11.378906 9.695312 11.054688 9.789062 10.617188 9.773438 C 10.480469 9.769531 10.339844 9.800781 10.203125 9.816406 C 10.175781 9.871094 10.148438 9.925781 10.121094 9.976562 C 10.378906 10.179688 10.636719 10.382812 10.847656 10.546875 C 10.847656 10.929688 10.847656 11.277344 10.847656 11.71875 C 10.84375 12.007812 10.839844 12.296875 10.746094 12.605469 C 10.65625 12.597656 10.5625 12.589844 10.441406 12.496094 C 10.355469 12.527344 10.269531 12.554688 10.082031 12.605469 C 9.953125 12.597656 9.820312 12.589844 9.664062 12.5 C 9.28125 12.4375 8.898438 12.375 8.484375 12.308594 C 8.441406 12.445312 8.375 12.5625 8.375 12.679688 C 8.367188 15.476562 8.367188 18.273438 8.382812 21.066406 C 8.382812 21.207031 8.550781 21.351562 8.726562 21.527344 C 9.121094 22.035156 9.503906 22.546875 9.914062 23.042969 C 10.949219 24.304688 11.992188 25.558594 13.066406 26.890625 C 13.710938 27.660156 14.355469 28.429688 15.03125 29.28125 C 15.675781 30.054688 16.320312 30.828125 16.980469 31.675781 C 17.042969 31.75 17.109375 31.824219 17.222656 31.964844 C 18.179688 33.132812 19.132812 34.300781 20.121094 35.511719 C 20.535156 35.015625 20.917969 34.554688 21.296875 34.089844 C 23.765625 31.078125 26.226562 28.058594 28.703125 25.050781 C 29.617188 23.941406 30.566406 22.855469 31.582031 21.742188 C 31.601562 21.664062 31.621094 21.585938 31.632812 21.503906 C 31.632812 21.503906 31.640625 21.503906 31.730469 21.484375 C 31.777344 21.402344 31.867188 21.316406 31.867188 21.230469 C 31.882812 18.5 31.886719 15.769531 31.890625 13.039062 C 31.890625 12.832031 31.863281 12.625 31.839844 12.292969 C 31.144531 12.398438 30.539062 12.488281 29.816406 12.601562 C 29.507812 12.597656 29.203125 12.589844 28.871094 12.5 C 28.601562 12.429688 28.304688 12.09375 28.007812 12.601562 C 27.828125 12.59375 27.644531 12.585938 27.40625 12.476562 C 26.332031 12.441406 25.257812 12.410156 24.179688 12.375 C 24.179688 12.375 24.179688 12.371094 24.152344 12.320312 C 24.128906 12.285156 24.09375 12.261719 24.054688 12.1875 C 24.054688 12.1875 24.054688 12.121094 24.117188 12.078125 C 24.140625 12.003906 24.160156 11.929688 24.253906 11.792969 C 24.105469 11.046875 24.148438 10.371094 24.929688 9.960938 C 24.984375 9.933594 24.988281 9.808594 25.011719 9.738281 C 24.421875 9.527344 23.851562 9.320312 23.253906 9.074219 C 23.253906 9.074219 23.246094 9.023438 23.261719 8.933594 M 28.113281 9.269531 C 27.824219 9.90625 27.152344 9.472656 26.679688 9.742188 C 27.085938 10.125 27.457031 10.46875 27.804688 10.914062 C 27.710938 11.117188 27.617188 11.320312 27.546875 11.472656 C 28.296875 11.527344 28.933594 11.574219 29.566406 11.621094 C 29.472656 11.3125 29.378906 11 29.316406 10.597656 C 29.207031 10.375 29.75 10.011719 29.121094 9.808594 C 28.953125 9.445312 28.78125 9.082031 28.585938 8.667969 C 28.449219 8.875 28.328125 9.058594 28.113281 9.269531 M 10.535156 11.664062 C 10.535156 11.664062 10.519531 11.671875 10.535156 11.664062 Z M 10.535156 11.664062 "/>
<path style=" stroke:none;fill-rule:nonzero;fill:rgb(98.823529%,98.823529%,98.823529%);fill-opacity:1;" d="M 27.464844 12.574219 C 27.644531 12.585938 27.828125 12.59375 28.109375 12.609375 C 28.4375 12.605469 28.664062 12.59375 28.894531 12.585938 C 29.203125 12.589844 29.507812 12.597656 29.929688 12.609375 C 30.5625 12.617188 31.078125 12.617188 31.640625 12.617188 C 31.640625 15.617188 31.640625 18.558594 31.640625 21.503906 C 31.640625 21.503906 31.632812 21.503906 31.605469 21.53125 C 31.550781 21.625 31.527344 21.691406 31.5 21.757812 C 30.566406 22.855469 29.617188 23.941406 28.703125 25.050781 C 26.226562 28.058594 23.765625 31.078125 21.296875 34.089844 C 20.917969 34.554688 20.535156 35.015625 20.121094 35.511719 C 19.132812 34.300781 18.179688 33.132812 17.21875 31.882812 C 17.191406 31.691406 17.167969 31.585938 17.144531 31.480469 C 17.082031 31.519531 17.023438 31.5625 16.964844 31.601562 C 16.320312 30.828125 15.675781 30.054688 15.070312 29.234375 C 15.949219 28.996094 16.730469 29.425781 16.820312 30.136719 C 16.914062 30.890625 17.820312 31.476562 18.5625 31.316406 C 18.5625 30.769531 18.582031 30.238281 18.550781 29.707031 C 18.539062 29.527344 18.402344 29.359375 18.3125 29.125 C 18.304688 26.382812 18.304688 23.699219 18.304688 21.011719 C 18.132812 20.984375 18.046875 20.964844 17.964844 20.964844 C 15.4375 20.960938 12.914062 20.960938 10.386719 20.96875 C 10.234375 20.96875 10.082031 21.058594 9.886719 21.113281 C 9.851562 21.292969 9.800781 21.511719 9.886719 21.625 C 10.21875 22.070312 10.582031 22.492188 10.957031 22.902344 C 11.296875 23.273438 11.667969 23.617188 12.023438 24.027344 C 11.902344 24.710938 12.375 24.78125 12.808594 24.945312 C 12.921875 25.183594 13.046875 25.363281 13.144531 25.554688 C 13.238281 25.742188 13.375 25.953125 13.351562 26.132812 C 13.320312 26.371094 13.148438 26.589844 13.035156 26.816406 C 11.992188 25.558594 10.949219 24.304688 9.914062 23.042969 C 9.503906 22.546875 9.121094 22.035156 8.675781 21.449219 C 8.625 18.46875 8.625 15.566406 8.625 12.648438 C 9.003906 12.621094 9.347656 12.601562 9.6875 12.582031 C 9.820312 12.589844 9.953125 12.597656 10.160156 12.613281 C 10.3125 12.605469 10.394531 12.597656 10.472656 12.585938 C 10.5625 12.589844 10.65625 12.597656 10.84375 12.609375 C 12.914062 12.605469 14.890625 12.59375 16.921875 12.59375 C 17.367188 12.597656 17.757812 12.589844 18.203125 12.597656 C 19.492188 12.605469 20.726562 12.59375 22.011719 12.59375 C 22.160156 12.597656 22.257812 12.589844 22.414062 12.59375 C 22.875 12.601562 23.273438 12.589844 23.722656 12.59375 C 23.867188 12.597656 23.960938 12.589844 24.117188 12.597656 C 25.273438 12.601562 26.367188 12.589844 27.464844 12.574219 M 21.054688 19.871094 C 22.53125 19.863281 24.003906 19.851562 25.585938 19.886719 C 25.855469 19.878906 26.125 19.871094 26.492188 19.902344 C 26.597656 19.890625 26.703125 19.878906 26.925781 19.890625 C 27.359375 19.882812 27.789062 19.875 28.34375 19.90625 C 29.046875 19.90625 29.75 19.90625 30.464844 19.90625 C 30.464844 18.558594 30.464844 17.292969 30.476562 15.902344 C 30.46875 15.207031 30.460938 14.507812 30.460938 13.734375 C 30.417969 13.722656 30.371094 13.707031 30.207031 13.671875 C 28.898438 13.679688 27.585938 13.6875 26.210938 13.679688 C 26.1875 13.6875 26.167969 13.691406 26.03125 13.671875 C 25.675781 13.679688 25.320312 13.6875 24.902344 13.683594 C 24.902344 13.683594 24.839844 13.695312 24.71875 13.671875 C 21.574219 13.679688 18.433594 13.6875 15.207031 13.679688 C 15.148438 13.683594 15.09375 13.691406 14.949219 13.671875 C 14.886719 13.679688 14.828125 13.6875 14.683594 13.679688 C 14.625 13.683594 14.570312 13.691406 14.40625 13.671875 C 14.265625 13.679688 14.125 13.6875 13.921875 13.683594 C 13.898438 13.6875 13.878906 13.691406 13.738281 13.671875 C 12.816406 13.679688 11.898438 13.6875 10.914062 13.679688 C 10.914062 13.679688 10.851562 13.695312 10.734375 13.671875 C 10.417969 13.671875 10.105469 13.671875 9.8125 13.671875 C 9.8125 15.792969 9.8125 17.824219 9.8125 19.847656 C 11.839844 19.847656 13.832031 19.847656 15.945312 19.875 C 17.433594 19.859375 18.917969 19.847656 20.453125 19.878906 C 20.453125 19.878906 20.511719 19.867188 20.59375 19.90625 C 20.707031 19.890625 20.824219 19.875 21.054688 19.871094 M 26.777344 25.410156 C 26.882812 25.3125 27.003906 25.226562 27.09375 25.113281 C 27.738281 24.289062 28.363281 23.449219 29.023438 22.636719 C 29.46875 22.089844 29.957031 21.582031 30.457031 21.015625 C 27.585938 21.015625 24.792969 21.015625 22.015625 21.015625 C 22.015625 24.449219 22.015625 27.835938 22.015625 31.285156 C 22.550781 30.640625 23.039062 30.0625 23.523438 29.480469 C 24.328125 28.503906 25.136719 27.53125 25.929688 26.546875 C 26.183594 26.230469 26.386719 25.875 26.667969 25.484375 C 26.671875 25.460938 26.679688 25.4375 26.777344 25.410156 Z M 26.777344 25.410156 "/>
<path style=" stroke:none;fill-rule:nonzero;fill:rgb(12.54902%,9.019608%,9.019608%);fill-opacity:1;" d="M 16.867188 12.582031 C 14.890625 12.59375 12.914062 12.605469 10.886719 12.601562 C 10.839844 12.296875 10.84375 12.007812 10.890625 11.652344 C 11.429688 11.027344 12.101562 11.550781 12.417969 11.457031 C 12.613281 10.800781 12.753906 10.34375 12.890625 9.882812 C 12.363281 10.097656 12.105469 9.773438 11.960938 9.253906 C 11.921875 9.117188 11.824219 8.996094 11.753906 8.867188 C 12.25 9.472656 12.949219 9.703125 13.753906 9.777344 C 13.601562 10.203125 13.589844 10.570312 13.066406 10.476562 C 12.972656 10.460938 12.71875 10.714844 12.738281 10.796875 C 12.800781 11.066406 12.945312 11.324219 13.085938 11.574219 C 13.125 11.640625 13.304688 11.621094 13.359375 11.691406 C 13.535156 11.90625 13.65625 12.316406 13.839844 12.34375 C 14.4375 12.421875 15.054688 12.378906 15.664062 12.335938 C 15.761719 12.328125 15.898438 12.085938 15.925781 11.933594 C 16 11.527344 16.03125 11.109375 16.089844 10.582031 C 15.988281 10.539062 15.761719 10.476562 15.582031 10.351562 C 15.425781 10.242188 15.320312 10.058594 15.191406 9.90625 C 15.371094 9.777344 15.535156 9.578125 15.734375 9.53125 C 16.019531 9.46875 16.332031 9.515625 16.589844 9.515625 C 16.761719 9.140625 16.886719 8.824219 17.050781 8.535156 C 17.113281 8.425781 17.304688 8.285156 17.386719 8.3125 C 17.507812 8.351562 17.667969 8.519531 17.675781 8.644531 C 17.722656 9.339844 18.085938 9.5625 18.753906 9.53125 C 19.0625 9.515625 19.382812 9.675781 19.695312 9.757812 C 19.699219 9.832031 19.703125 9.90625 19.707031 9.980469 C 19.324219 10.132812 18.941406 10.28125 18.5 10.433594 C 18.441406 10.433594 18.425781 10.417969 18.445312 10.378906 C 18.609375 10.226562 18.75 10.113281 18.925781 9.976562 C 18.4375 9.695312 17.746094 9.898438 17.523438 9.242188 C 17.523438 9.246094 17.527344 9.242188 17.527344 9.195312 C 17.480469 9.023438 17.4375 8.894531 17.394531 8.765625 C 17.332031 8.757812 17.269531 8.753906 17.210938 8.746094 C 17.136719 9 17.0625 9.25 16.988281 9.503906 C 16.992188 9.507812 16.984375 9.507812 16.953125 9.527344 C 16.898438 9.617188 16.871094 9.6875 16.816406 9.757812 C 16.785156 9.761719 16.726562 9.773438 16.675781 9.765625 C 16.367188 9.785156 16.117188 9.8125 15.863281 9.84375 C 15.851562 9.902344 15.839844 9.960938 15.828125 10.019531 C 16.027344 10.167969 16.226562 10.316406 16.429688 10.460938 C 16.429688 10.457031 16.4375 10.464844 16.445312 10.496094 C 16.496094 10.546875 16.535156 10.566406 16.570312 10.609375 C 16.570312 10.632812 16.574219 10.679688 16.542969 10.714844 C 16.445312 11.058594 16.375 11.363281 16.285156 11.761719 C 16.574219 11.667969 16.710938 11.621094 16.855469 11.585938 C 16.863281 11.597656 16.882812 11.617188 16.875 11.664062 C 16.867188 12 16.867188 12.292969 16.867188 12.582031 Z M 16.867188 12.582031 "/>
<path style=" stroke:none;fill-rule:nonzero;fill:rgb(98.039216%,94.509804%,94.509804%);fill-opacity:1;" d="M 13.050781 26.851562 C 13.148438 26.589844 13.320312 26.371094 13.351562 26.132812 C 13.375 25.953125 13.238281 25.742188 13.144531 25.554688 C 13.046875 25.363281 12.921875 25.183594 12.828125 24.921875 C 12.851562 24.84375 12.894531 24.796875 12.925781 24.824219 C 13.082031 24.953125 13.207031 25.050781 13.347656 25.191406 C 14.898438 27.144531 16.429688 29.054688 17.964844 30.964844 C 18.019531 30.929688 18.078125 30.894531 18.132812 30.859375 C 18.148438 30.695312 18.167969 30.53125 18.226562 30.332031 C 18.285156 29.925781 18.304688 29.554688 18.324219 29.183594 C 18.402344 29.359375 18.539062 29.527344 18.550781 29.707031 C 18.582031 30.238281 18.5625 30.769531 18.5625 31.316406 C 17.820312 31.476562 16.914062 30.890625 16.820312 30.136719 C 16.730469 29.425781 15.949219 28.996094 15.054688 29.191406 C 14.355469 28.429688 13.710938 27.660156 13.050781 26.851562 Z M 13.050781 26.851562 "/>
<path style=" stroke:none;fill-rule:nonzero;fill:rgb(84.313726%,24.313726%,26.666668%);fill-opacity:1;" d="M 21.941406 5.996094 C 21.941406 5.996094 21.953125 6.058594 21.902344 6.101562 C 21.640625 6.292969 21.402344 6.410156 21.226562 6.59375 C 21.101562 6.726562 20.980469 6.953125 21.003906 7.113281 C 21.046875 7.398438 21.199219 7.667969 21.308594 7.945312 C 21.289062 8.019531 21.273438 8.09375 21.195312 8.132812 C 20.917969 7.9375 20.714844 7.722656 20.46875 7.625 C 20.285156 7.554688 20.046875 7.640625 19.832031 7.652344 C 19.832031 7.652344 19.785156 7.675781 19.730469 7.695312 C 19.636719 7.734375 19.613281 7.769531 19.609375 7.816406 C 19.609375 7.816406 19.609375 7.816406 19.566406 7.820312 C 19.367188 7.730469 19.210938 7.636719 19.058594 7.542969 C 19.058594 7.542969 19.074219 7.488281 19.117188 7.433594 C 19.1875 7.273438 19.214844 7.164062 19.242188 7.054688 C 19.242188 7.054688 19.234375 7.039062 19.273438 7.019531 C 19.234375 6.882812 19.15625 6.769531 19.078125 6.652344 C 19.078125 6.652344 19.085938 6.644531 19.078125 6.613281 C 19.03125 6.558594 18.992188 6.535156 18.957031 6.511719 C 18.945312 6.46875 18.921875 6.433594 18.859375 6.34375 C 18.949219 6.222656 19.070312 6.125 19.1875 6.125 C 19.558594 6.125 19.730469 5.960938 19.726562 5.597656 C 19.726562 5.597656 19.746094 5.546875 19.785156 5.492188 C 19.839844 5.320312 19.855469 5.203125 19.875 5.085938 C 19.910156 4.984375 19.945312 4.882812 20.039062 4.742188 C 20.144531 4.703125 20.195312 4.703125 20.246094 4.703125 C 20.246094 4.703125 20.253906 4.765625 20.261719 4.839844 C 20.617188 5.957031 20.617188 5.957031 21.679688 5.988281 C 21.765625 5.992188 21.855469 5.996094 21.941406 5.996094 Z M 21.941406 5.996094 "/>
<path style=" stroke:none;fill-rule:nonzero;fill:rgb(94.509804%,87.843138%,26.274511%);fill-opacity:1;" d="M 11.703125 8.863281 C 11.824219 8.996094 11.921875 9.117188 11.960938 9.253906 C 12.105469 9.773438 12.363281 10.097656 12.890625 9.882812 C 12.753906 10.34375 12.613281 10.800781 12.417969 11.457031 C 12.101562 11.550781 11.429688 11.027344 10.894531 11.605469 C 10.847656 11.277344 10.847656 10.929688 10.847656 10.546875 C 10.636719 10.382812 10.378906 10.179688 10.121094 9.976562 C 10.148438 9.925781 10.175781 9.871094 10.203125 9.816406 C 10.339844 9.800781 10.480469 9.769531 10.617188 9.773438 C 11.054688 9.789062 11.378906 9.695312 11.386719 9.160156 C 11.386719 9.058594 11.5625 8.960938 11.703125 8.863281 M 11.9375 10.90625 C 12.023438 10.777344 12.199219 10.621094 12.171875 10.527344 C 12.132812 10.402344 11.945312 10.285156 11.796875 10.242188 C 11.589844 10.179688 11.363281 10.191406 11.125 10.167969 C 11.078125 10.695312 11.414062 10.851562 11.9375 10.90625 Z M 11.9375 10.90625 "/>
<path style=" stroke:none;fill-rule:nonzero;fill:rgb(12.54902%,9.019608%,9.019608%);fill-opacity:1;" d="M 31.6875 21.496094 C 31.640625 18.558594 31.640625 15.617188 31.640625 12.617188 C 31.078125 12.617188 30.5625 12.617188 29.988281 12.597656 C 30.539062 12.488281 31.144531 12.398438 31.839844 12.292969 C 31.863281 12.625 31.890625 12.832031 31.890625 13.039062 C 31.886719 15.769531 31.882812 18.5 31.867188 21.230469 C 31.867188 21.316406 31.777344 21.402344 31.6875 21.496094 Z M 31.6875 21.496094 "/>
<path style=" stroke:none;fill-rule:nonzero;fill:rgb(17.254902%,1.176471%,1.568628%);fill-opacity:1;" d="M 23.28125 9.117188 C 23.851562 9.320312 24.421875 9.527344 25.011719 9.738281 C 24.988281 9.808594 24.984375 9.933594 24.929688 9.960938 C 24.148438 10.371094 24.105469 11.046875 24.175781 11.828125 C 24.042969 11.949219 23.980469 12.03125 23.917969 12.152344 C 23.871094 12.253906 23.824219 12.316406 23.738281 12.375 C 23.648438 12.378906 23.59375 12.378906 23.539062 12.328125 C 23.246094 11.542969 23.027344 11.464844 22.425781 11.886719 C 22.265625 11.996094 22.113281 12.117188 21.941406 12.191406 C 21.890625 12.015625 21.859375 11.878906 21.878906 11.738281 C 22.160156 11.628906 22.378906 11.480469 22.621094 11.429688 C 22.867188 11.375 23.136719 11.402344 23.390625 11.425781 C 23.539062 11.441406 23.679688 11.523438 23.824219 11.574219 C 23.835938 11.417969 23.851562 11.261719 23.863281 11.105469 C 23.894531 10.800781 23.921875 10.496094 23.949219 10.191406 C 24.027344 10.160156 24.101562 10.128906 24.179688 10.097656 C 23.929688 9.984375 23.679688 9.867188 23.417969 9.714844 C 23.367188 9.644531 23.328125 9.609375 23.292969 9.558594 C 23.296875 9.542969 23.277344 9.507812 23.28125 9.460938 C 23.28125 9.3125 23.28125 9.214844 23.28125 9.117188 Z M 23.28125 9.117188 "/>
<path style=" stroke:none;fill-rule:nonzero;fill:rgb(12.54902%,9.019608%,9.019608%);fill-opacity:1;" d="M 9.675781 12.539062 C 9.347656 12.601562 9.003906 12.621094 8.625 12.648438 C 8.625 15.566406 8.625 18.46875 8.632812 21.429688 C 8.550781 21.351562 8.382812 21.207031 8.382812 21.066406 C 8.367188 18.273438 8.367188 15.476562 8.375 12.679688 C 8.375 12.5625 8.441406 12.445312 8.484375 12.308594 C 8.898438 12.375 9.28125 12.4375 9.675781 12.539062 Z M 9.675781 12.539062 "/>
<path style=" stroke:none;fill-rule:nonzero;fill:rgb(94.509804%,86.274511%,23.529412%);fill-opacity:1;" d="M 29.289062 10.6875 C 29.378906 11 29.472656 11.3125 29.566406 11.621094 C 28.933594 11.574219 28.296875 11.527344 27.546875 11.472656 C 27.617188 11.320312 27.710938 11.117188 27.820312 10.820312 C 27.804688 10.582031 27.773438 10.4375 27.789062 10.289062 C 28.015625 10.292969 28.1875 10.292969 28.382812 10.332031 C 28.539062 10.550781 28.679688 10.734375 28.8125 10.910156 C 28.992188 10.824219 29.140625 10.757812 29.289062 10.6875 Z M 29.289062 10.6875 "/>
<path style=" stroke:none;fill-rule:nonzero;fill:rgb(17.254902%,1.176471%,1.568628%);fill-opacity:1;" d="M 21.710938 11.082031 C 21.550781 10.824219 21.398438 10.5625 21.222656 10.316406 C 21.085938 10.121094 20.914062 9.949219 20.6875 9.683594 C 21.085938 9.558594 21.375 9.367188 21.601562 9.421875 C 22.21875 9.570312 22.390625 9.238281 22.511719 8.761719 C 22.527344 8.703125 22.636719 8.667969 22.738281 8.667969 C 22.761719 8.804688 22.75 8.894531 22.738281 8.984375 C 22.742188 8.988281 22.738281 8.980469 22.703125 9.011719 C 22.644531 9.199219 22.625 9.355469 22.566406 9.539062 C 22.21875 9.71875 21.90625 9.863281 21.542969 10.035156 C 21.914062 10.433594 22.433594 10.796875 21.835938 11.316406 C 21.789062 11.210938 21.75 11.144531 21.710938 11.082031 Z M 21.710938 11.082031 "/>
<path style=" stroke:none;fill-rule:nonzero;fill:rgb(12.54902%,9.019608%,9.019608%);fill-opacity:1;" d="M 21.679688 11.101562 C 21.75 11.144531 21.789062 11.210938 21.832031 11.363281 C 21.835938 11.546875 21.832031 11.644531 21.828125 11.738281 C 21.859375 11.878906 21.890625 12.015625 21.9375 12.238281 C 21.960938 12.410156 21.960938 12.496094 21.964844 12.585938 C 20.726562 12.59375 19.492188 12.605469 18.21875 12.558594 C 18.4375 12.460938 18.695312 12.421875 18.953125 12.382812 C 19.453125 12.382812 19.949219 12.382812 20.449219 12.382812 C 21.105469 12.382812 21.652344 11.808594 21.679688 11.101562 Z M 21.679688 11.101562 "/>
<path style=" stroke:none;fill-rule:nonzero;fill:rgb(1.176471%,1.176471%,1.176471%);fill-opacity:1;" d="M 18.953125 12.332031 C 18.695312 12.421875 18.4375 12.460938 18.164062 12.542969 C 17.757812 12.589844 17.367188 12.597656 16.921875 12.59375 C 16.867188 12.292969 16.867188 12 16.925781 11.65625 C 17.289062 11.726562 17.621094 11.8125 17.894531 11.988281 C 18.234375 12.210938 18.480469 12.230469 18.691406 11.855469 C 18.78125 12 18.867188 12.140625 18.953125 12.332031 Z M 18.953125 12.332031 "/>
<path style=" stroke:none;fill-rule:nonzero;fill:rgb(95.686275%,88.627452%,27.843139%);fill-opacity:1;" d="M 28.363281 10.292969 C 28.1875 10.292969 28.015625 10.292969 27.78125 10.246094 C 27.882812 9.882812 28.042969 9.5625 28.207031 9.246094 C 28.328125 9.058594 28.449219 8.875 28.585938 8.667969 C 28.78125 9.082031 28.953125 9.445312 29.09375 9.859375 C 28.832031 10.035156 28.597656 10.164062 28.363281 10.292969 Z M 28.363281 10.292969 "/>
<path style=" stroke:none;fill-rule:nonzero;fill:rgb(12.54902%,9.019608%,9.019608%);fill-opacity:1;" d="M 18.695312 11.8125 C 18.480469 12.230469 18.234375 12.210938 17.894531 11.988281 C 17.621094 11.8125 17.289062 11.726562 16.929688 11.609375 C 16.882812 11.617188 16.863281 11.597656 16.878906 11.550781 C 17.183594 11.21875 17.453125 11.191406 17.773438 11.5 C 17.910156 11.632812 18.15625 11.652344 18.34375 11.722656 C 18.480469 11.226562 17.820312 10.800781 18.425781 10.417969 C 18.425781 10.417969 18.441406 10.433594 18.449219 10.441406 C 18.527344 10.714844 18.609375 10.980469 18.660156 11.25 C 18.695312 11.417969 18.6875 11.59375 18.695312 11.8125 Z M 18.695312 11.8125 "/>
<path style=" stroke:none;fill-rule:nonzero;fill:rgb(14.509805%,10.196079%,1.176471%);fill-opacity:1;" d="M 28.160156 9.257812 C 28.042969 9.5625 27.882812 9.882812 27.726562 10.246094 C 27.773438 10.4375 27.804688 10.582031 27.832031 10.773438 C 27.457031 10.46875 27.085938 10.125 26.679688 9.742188 C 27.152344 9.472656 27.824219 9.90625 28.160156 9.257812 Z M 28.160156 9.257812 "/>
<path style=" stroke:none;fill-rule:nonzero;fill:rgb(12.54902%,9.019608%,9.019608%);fill-opacity:1;" d="M 27.4375 12.527344 C 26.367188 12.589844 25.273438 12.601562 24.128906 12.570312 C 24.117188 12.476562 24.148438 12.425781 24.183594 12.378906 C 25.257812 12.410156 26.332031 12.441406 27.4375 12.527344 Z M 27.4375 12.527344 "/>
<path style=" stroke:none;fill-rule:nonzero;fill:rgb(28.235295%,3.529412%,3.921569%);fill-opacity:1;" d="M 19.675781 5.605469 C 19.730469 5.960938 19.558594 6.125 19.1875 6.125 C 19.070312 6.125 18.949219 6.222656 18.828125 6.332031 C 18.59375 6.285156 18.363281 6.191406 18.132812 6.097656 C 18.152344 6.003906 18.167969 5.910156 18.183594 5.8125 C 18.667969 5.75 19.148438 5.683594 19.675781 5.605469 Z M 19.675781 5.605469 "/>
<path style=" stroke:none;fill-rule:nonzero;fill:rgb(17.254902%,1.176471%,1.568628%);fill-opacity:1;" d="M 21.34375 7.929688 C 21.199219 7.667969 21.046875 7.398438 21.003906 7.113281 C 20.980469 6.953125 21.101562 6.726562 21.226562 6.59375 C 21.402344 6.410156 21.640625 6.292969 21.898438 6.132812 C 21.863281 6.289062 21.828125 6.503906 21.703125 6.613281 C 21.363281 6.914062 21.105469 7.1875 21.53125 7.613281 C 21.558594 7.640625 21.433594 7.8125 21.34375 7.929688 Z M 21.34375 7.929688 "/>
<path style=" stroke:none;fill-rule:nonzero;fill:rgb(22.352941%,2.745098%,2.352941%);fill-opacity:1;" d="M 21.9375 5.953125 C 21.855469 5.996094 21.765625 5.992188 21.679688 5.988281 C 20.617188 5.957031 20.617188 5.957031 20.277344 4.867188 C 20.453125 5.019531 20.625 5.222656 20.820312 5.453125 C 21.144531 5.582031 21.539062 5.746094 21.9375 5.953125 Z M 21.9375 5.953125 "/>
<path style=" stroke:none;fill-rule:nonzero;fill:rgb(97.254902%,86.274511%,14.901961%);fill-opacity:1;" d="M 28.382812 10.332031 C 28.597656 10.164062 28.832031 10.035156 29.113281 9.902344 C 29.75 10.011719 29.207031 10.375 29.300781 10.644531 C 29.140625 10.757812 28.992188 10.824219 28.8125 10.910156 C 28.679688 10.734375 28.539062 10.550781 28.382812 10.332031 Z M 28.382812 10.332031 "/>
<path style=" stroke:none;fill-rule:nonzero;fill:rgb(28.235295%,3.529412%,3.921569%);fill-opacity:1;" d="M 19.882812 7.664062 C 20.046875 7.640625 20.285156 7.554688 20.46875 7.625 C 20.714844 7.722656 20.917969 7.9375 21.15625 8.136719 C 21.039062 8.160156 20.882812 8.183594 20.765625 8.128906 C 20.480469 7.996094 20.210938 7.828125 19.882812 7.664062 Z M 19.882812 7.664062 "/>
<path style=" stroke:none;fill-rule:nonzero;fill:rgb(28.235295%,3.529412%,3.921569%);fill-opacity:1;" d="M 19.015625 7.558594 C 19.210938 7.636719 19.367188 7.730469 19.566406 7.820312 C 19.441406 7.988281 19.277344 8.160156 19.113281 8.328125 C 19.050781 8.296875 18.988281 8.265625 18.925781 8.234375 C 18.941406 8.015625 18.957031 7.792969 19.015625 7.558594 Z M 19.015625 7.558594 "/>
<path style=" stroke:none;fill-rule:nonzero;fill:rgb(12.54902%,9.019608%,9.019608%);fill-opacity:1;" d="M 28.882812 12.542969 C 28.664062 12.59375 28.4375 12.605469 28.152344 12.597656 C 28.304688 12.09375 28.601562 12.429688 28.882812 12.542969 Z M 28.882812 12.542969 "/>
<path style=" stroke:none;fill-rule:nonzero;fill:rgb(74.509805%,31.37255%,32.941177%);fill-opacity:1;" d="M 22.734375 8.984375 C 22.75 8.894531 22.761719 8.804688 22.789062 8.675781 C 22.859375 8.566406 22.917969 8.503906 23 8.5 C 23.066406 8.703125 23.105469 8.84375 23.140625 8.988281 C 23.132812 8.992188 23.125 9.003906 23.074219 9 C 22.929688 8.992188 22.832031 8.988281 22.734375 8.984375 Z M 22.734375 8.984375 "/>
<path style=" stroke:none;fill-rule:nonzero;fill:rgb(1.176471%,1.176471%,1.176471%);fill-opacity:1;" d="M 24.179688 12.375 C 24.148438 12.425781 24.117188 12.476562 24.070312 12.554688 C 23.960938 12.589844 23.867188 12.597656 23.742188 12.570312 C 23.738281 12.484375 23.757812 12.429688 23.78125 12.375 C 23.824219 12.316406 23.871094 12.253906 23.953125 12.15625 C 23.988281 12.117188 24.054688 12.121094 24.054688 12.121094 C 24.054688 12.121094 24.054688 12.1875 24.066406 12.246094 C 24.105469 12.339844 24.136719 12.359375 24.179688 12.371094 C 24.179688 12.371094 24.179688 12.375 24.179688 12.375 Z M 24.179688 12.375 "/>
<path style=" stroke:none;fill-rule:nonzero;fill:rgb(98.039216%,94.509804%,94.509804%);fill-opacity:1;" d="M 16.972656 31.636719 C 17.023438 31.5625 17.082031 31.519531 17.144531 31.480469 C 17.167969 31.585938 17.191406 31.691406 17.195312 31.847656 C 17.109375 31.824219 17.042969 31.75 16.972656 31.636719 Z M 16.972656 31.636719 "/>
<path style=" stroke:none;fill-rule:nonzero;fill:rgb(17.254902%,1.176471%,1.568628%);fill-opacity:1;" d="M 23.144531 8.980469 C 23.105469 8.84375 23.066406 8.703125 23.023438 8.519531 C 23.488281 8.425781 23.230469 8.757812 23.226562 8.96875 C 23.195312 9.007812 23.144531 8.980469 23.144531 8.980469 Z M 23.144531 8.980469 "/>
<path style=" stroke:none;fill-rule:nonzero;fill:rgb(12.54902%,9.019608%,9.019608%);fill-opacity:1;" d="M 10.457031 12.542969 C 10.394531 12.597656 10.3125 12.605469 10.207031 12.601562 C 10.269531 12.554688 10.355469 12.527344 10.457031 12.542969 Z M 10.457031 12.542969 "/>
<path style=" stroke:none;fill-rule:nonzero;fill:rgb(22.352941%,2.745098%,2.352941%);fill-opacity:1;" d="M 20.25 4.664062 C 20.195312 4.703125 20.144531 4.703125 20.058594 4.707031 C 20.042969 4.636719 20.066406 4.566406 20.089844 4.496094 C 20.144531 4.539062 20.199219 4.582031 20.25 4.664062 Z M 20.25 4.664062 "/>
<path style=" stroke:none;fill-rule:nonzero;fill:rgb(28.235295%,3.529412%,3.921569%);fill-opacity:1;" d="M 19.082031 6.695312 C 19.15625 6.769531 19.234375 6.882812 19.28125 7.027344 C 19.195312 6.949219 19.140625 6.84375 19.082031 6.695312 Z M 19.082031 6.695312 "/>
<path style=" stroke:none;fill-rule:nonzero;fill:rgb(74.509805%,31.37255%,32.941177%);fill-opacity:1;" d="M 23.140625 8.988281 C 23.144531 8.980469 23.195312 9.007812 23.222656 9.015625 C 23.246094 9.023438 23.253906 9.074219 23.269531 9.09375 C 23.28125 9.214844 23.28125 9.3125 23.242188 9.433594 C 23.175781 9.304688 23.148438 9.15625 23.125 9.003906 C 23.125 9.003906 23.132812 8.992188 23.140625 8.988281 Z M 23.140625 8.988281 "/>
<path style=" stroke:none;fill-rule:nonzero;fill:rgb(12.54902%,9.019608%,9.019608%);fill-opacity:1;" d="M 24.085938 12.101562 C 24.054688 12.121094 23.988281 12.117188 23.957031 12.117188 C 23.980469 12.03125 24.042969 11.949219 24.140625 11.863281 C 24.160156 11.929688 24.140625 12.003906 24.085938 12.101562 Z M 24.085938 12.101562 "/>
<path style=" stroke:none;fill-rule:nonzero;fill:rgb(28.235295%,3.529412%,3.921569%);fill-opacity:1;" d="M 19.835938 5.113281 C 19.855469 5.203125 19.839844 5.320312 19.789062 5.464844 C 19.769531 5.378906 19.785156 5.257812 19.835938 5.113281 Z M 19.835938 5.113281 "/>
<path style=" stroke:none;fill-rule:nonzero;fill:rgb(28.235295%,3.529412%,3.921569%);fill-opacity:1;" d="M 19.203125 7.074219 C 19.214844 7.164062 19.1875 7.273438 19.121094 7.40625 C 19.109375 7.316406 19.136719 7.203125 19.203125 7.074219 Z M 19.203125 7.074219 "/>
<path style=" stroke:none;fill-rule:nonzero;fill:rgb(12.54902%,9.019608%,9.019608%);fill-opacity:1;" d="M 31.542969 21.75 C 31.527344 21.691406 31.550781 21.625 31.609375 21.53125 C 31.621094 21.585938 31.601562 21.664062 31.542969 21.75 Z M 31.542969 21.75 "/>
<path style=" stroke:none;fill-rule:nonzero;fill:rgb(28.235295%,3.529412%,3.921569%);fill-opacity:1;" d="M 18.964844 6.542969 C 18.992188 6.535156 19.03125 6.558594 19.074219 6.617188 C 19.035156 6.636719 19 6.609375 18.964844 6.542969 Z M 18.964844 6.542969 "/>
<path style=" stroke:none;fill-rule:nonzero;fill:rgb(28.235295%,3.529412%,3.921569%);fill-opacity:1;" d="M 19.636719 7.808594 C 19.613281 7.769531 19.636719 7.734375 19.710938 7.710938 C 19.734375 7.75 19.707031 7.78125 19.636719 7.808594 Z M 19.636719 7.808594 "/>
<path style=" stroke:none;fill-rule:nonzero;fill:rgb(17.254902%,1.176471%,1.568628%);fill-opacity:1;" d="M 24.164062 12.34375 C 24.136719 12.359375 24.105469 12.339844 24.070312 12.277344 C 24.09375 12.261719 24.128906 12.285156 24.164062 12.34375 Z M 24.164062 12.34375 "/>
<path style=" stroke:none;fill-rule:nonzero;fill:rgb(13.725491%,12.54902%,12.941177%);fill-opacity:1;" d="M 10.980469 13.695312 C 11.898438 13.6875 12.816406 13.679688 13.800781 13.714844 C 13.882812 13.792969 13.902344 13.824219 13.921875 13.859375 C 13.945312 13.804688 13.964844 13.75 13.984375 13.695312 C 14.125 13.6875 14.265625 13.679688 14.464844 13.722656 C 14.5625 13.808594 14.605469 13.847656 14.648438 13.886719 C 14.6875 13.824219 14.730469 13.757812 14.769531 13.695312 C 14.828125 13.6875 14.886719 13.679688 14.996094 13.722656 C 15.085938 13.808594 15.128906 13.847656 15.171875 13.886719 C 15.210938 13.824219 15.25 13.761719 15.292969 13.695312 C 18.433594 13.6875 21.574219 13.679688 24.777344 13.714844 C 24.863281 13.792969 24.882812 13.824219 24.902344 13.855469 C 24.921875 13.804688 24.945312 13.75 24.964844 13.695312 C 25.320312 13.6875 25.675781 13.679688 26.089844 13.714844 C 26.167969 13.792969 26.191406 13.824219 26.210938 13.855469 C 26.230469 13.804688 26.253906 13.75 26.273438 13.695312 C 27.585938 13.6875 28.898438 13.679688 30.28125 13.710938 C 30.378906 13.78125 30.410156 13.800781 30.453125 13.808594 C 30.460938 14.507812 30.46875 15.207031 30.441406 15.996094 C 30.300781 16.183594 30.195312 16.28125 30.179688 16.292969 C 30.25 16.546875 30.347656 16.742188 30.351562 16.941406 C 30.371094 17.65625 30.332031 18.371094 30.367188 19.085938 C 30.386719 19.578125 30.199219 19.71875 29.722656 19.714844 C 29.222656 19.714844 28.722656 19.8125 28.222656 19.867188 C 27.789062 19.875 27.359375 19.882812 26.855469 19.847656 C 26.652344 19.824219 26.523438 19.84375 26.394531 19.863281 C 26.125 19.871094 25.855469 19.878906 25.511719 19.820312 C 23.90625 19.734375 22.375 19.714844 20.804688 19.695312 C 20.683594 19.757812 20.597656 19.8125 20.511719 19.867188 C 20.511719 19.867188 20.453125 19.878906 20.394531 19.8125 C 20.101562 19.722656 19.867188 19.679688 19.636719 19.675781 C 18.40625 19.667969 17.175781 19.664062 15.945312 19.609375 C 15.945312 19.425781 15.945312 19.292969 16 19.15625 C 16.195312 19.007812 16.664062 19.457031 16.566406 18.8125 C 16.566406 18.246094 16.566406 17.738281 16.566406 17.199219 C 16.988281 17.199219 17.332031 17.199219 17.675781 17.199219 C 18.023438 17.199219 18.386719 17.265625 18.710938 17.179688 C 19.007812 17.101562 19.363281 16.917969 19.507812 16.671875 C 19.890625 16.027344 19.585938 15.035156 18.941406 14.566406 C 18.898438 14.554688 18.863281 14.566406 18.765625 14.585938 C 17.71875 14.597656 16.730469 14.597656 15.667969 14.597656 C 15.667969 15.976562 15.667969 17.304688 15.625 18.640625 C 15.53125 18.726562 15.476562 18.808594 15.371094 18.894531 C 15.117188 19.121094 14.910156 19.347656 14.6875 19.59375 C 14.144531 19.617188 13.519531 19.660156 12.898438 19.671875 C 12.292969 19.683594 11.6875 19.679688 11.082031 19.644531 C 10.960938 19.636719 10.851562 19.453125 10.738281 19.351562 C 10.886719 19.277344 11.035156 19.136719 11.1875 19.136719 C 11.964844 19.121094 12.742188 19.15625 13.519531 19.144531 C 13.632812 19.144531 13.746094 19.003906 13.898438 18.914062 C 14 18.898438 14.058594 18.898438 14.121094 18.945312 C 14.175781 19.054688 14.226562 19.179688 14.28125 19.179688 C 14.792969 19.183594 14.886719 18.941406 14.648438 18.183594 C 14.601562 17.46875 14.855469 16.699219 13.972656 16.320312 C 13.953125 16.238281 13.933594 16.195312 13.917969 16.152344 C 13.894531 16.203125 13.875 16.25 13.796875 16.3125 C 13.429688 16.3125 13.121094 16.304688 12.792969 16.261719 C 12.699219 16.25 12.625 16.269531 12.503906 16.304688 C 12.40625 16.308594 12.347656 16.300781 12.261719 16.253906 C 12.023438 16.105469 11.816406 15.996094 11.585938 15.84375 C 11.585938 15.746094 11.609375 15.691406 11.65625 15.625 C 11.726562 15.59375 11.75 15.558594 11.820312 15.5 C 12.757812 15.496094 13.632812 15.507812 14.511719 15.550781 C 14.539062 15.609375 14.566406 15.640625 14.589844 15.667969 C 14.605469 15.605469 14.621094 15.546875 14.636719 15.433594 C 14.59375 15.109375 14.550781 14.84375 14.496094 14.554688 C 14.449219 14.546875 14.417969 14.5625 14.320312 14.585938 C 13.546875 14.597656 12.832031 14.597656 12.117188 14.597656 C 10.761719 14.597656 10.488281 14.878906 10.597656 16.214844 C 10.617188 16.453125 10.769531 16.679688 10.835938 16.949219 C 10.3125 16.914062 10.167969 16.519531 10.078125 16.128906 C 10.003906 15.824219 10.058594 15.488281 10.011719 15.171875 C 9.945312 14.691406 10.125 14.433594 10.601562 14.316406 C 10.75 14.28125 10.855469 14.074219 10.980469 13.902344 C 10.980469 13.804688 10.980469 13.75 10.980469 13.695312 M 21.507812 18.867188 C 21.527344 18.570312 21.546875 18.277344 21.628906 17.945312 C 21.609375 17.871094 21.585938 17.796875 21.539062 17.625 C 21.546875 17.527344 21.558594 17.425781 21.625 17.308594 C 21.660156 17.289062 21.683594 17.257812 21.816406 17.199219 C 22.4375 17.199219 23.058594 17.199219 23.726562 17.199219 C 23.703125 16.855469 23.6875 16.582031 23.601562 16.222656 C 22.921875 16.199219 22.242188 16.175781 21.539062 16.054688 C 21.546875 15.914062 21.554688 15.777344 21.625 15.613281 C 21.664062 15.589844 21.6875 15.554688 21.785156 15.488281 C 21.84375 15.496094 21.902344 15.507812 21.996094 15.570312 C 22.035156 15.597656 22.074219 15.617188 22.234375 15.625 C 22.683594 15.625 23.132812 15.621094 23.582031 15.621094 C 24.578125 15.621094 24.578125 15.621094 24.570312 14.542969 C 24.554688 14.503906 24.542969 14.464844 24.53125 14.425781 C 24.503906 14.476562 24.476562 14.523438 24.328125 14.59375 C 23.144531 14.585938 21.964844 14.582031 20.777344 14.507812 C 20.75 14.484375 20.722656 14.457031 20.699219 14.429688 C 20.683594 14.488281 20.671875 14.550781 20.660156 14.730469 C 20.660156 15.941406 20.652344 17.152344 20.664062 18.363281 C 20.667969 18.566406 20.746094 18.761719 20.820312 19.042969 C 21.023438 19.011719 21.230469 18.980469 21.507812 18.867188 M 26.53125 17.730469 C 26.539062 17.03125 26.546875 16.332031 26.605469 15.609375 C 26.632812 15.585938 26.65625 15.554688 26.78125 15.484375 C 27.355469 15.496094 27.925781 15.503906 28.492188 15.609375 C 28.566406 15.792969 28.640625 15.972656 28.78125 16.234375 C 29.03125 16.179688 29.421875 16.199219 29.507812 16.050781 C 29.871094 15.414062 29.382812 14.625 28.640625 14.597656 C 27.964844 14.578125 27.289062 14.582031 26.617188 14.597656 C 26.007812 14.609375 25.648438 14.957031 25.632812 15.566406 C 25.613281 16.371094 25.617188 17.171875 25.632812 17.976562 C 25.644531 18.5625 25.941406 18.90625 26.554688 18.914062 C 27.117188 18.921875 27.683594 18.914062 28.25 18.914062 C 29.457031 18.914062 29.632812 18.714844 29.484375 17.3125 C 29.164062 17.460938 28.886719 17.59375 28.503906 17.734375 C 27.851562 17.773438 27.203125 17.8125 26.53125 17.730469 M 21.882812 17.652344 C 21.882812 17.652344 21.898438 17.644531 21.882812 17.652344 Z M 21.882812 17.652344 "/>
<path style=" stroke:none;fill-rule:nonzero;fill:rgb(12.156863%,11.372549%,11.764706%);fill-opacity:1;" d="M 26.613281 25.539062 C 26.386719 25.875 26.183594 26.230469 25.929688 26.546875 C 25.136719 27.53125 24.328125 28.503906 23.523438 29.480469 C 23.039062 30.0625 22.550781 30.640625 22.015625 31.285156 C 22.015625 27.835938 22.015625 24.449219 22.015625 21.015625 C 24.792969 21.015625 27.585938 21.015625 30.457031 21.015625 C 29.957031 21.582031 29.46875 22.089844 29.023438 22.636719 C 28.363281 23.449219 27.738281 24.289062 27.09375 25.113281 C 27.003906 25.226562 26.882812 25.3125 26.695312 25.398438 C 26.519531 25.382812 26.425781 25.382812 26.332031 25.378906 C 26.425781 25.433594 26.519531 25.484375 26.613281 25.539062 M 23.398438 22.898438 C 23.324219 22.339844 23.546875 22.121094 24.128906 22.140625 C 25.324219 22.175781 26.523438 22.160156 27.71875 22.136719 C 27.882812 22.136719 28.050781 21.976562 28.214844 21.886719 C 28.046875 21.800781 27.882812 21.644531 27.714844 21.640625 C 26.542969 21.617188 25.367188 21.632812 24.191406 21.625 C 23.753906 21.621094 23.296875 21.734375 22.929688 21.3125 C 22.832031 21.203125 22.5 21.296875 22.226562 21.296875 C 22.226562 23.5625 22.203125 25.773438 22.242188 27.980469 C 22.25 28.414062 22.5 28.84375 22.632812 29.277344 C 22.699219 29.285156 22.765625 29.296875 22.828125 29.304688 C 22.976562 28.980469 23.121094 28.65625 23.285156 28.300781 C 23.492188 28.316406 23.738281 28.335938 24.171875 28.363281 C 24.03125 27.847656 24.042969 27.246094 23.761719 27.046875 C 23.449219 26.820312 23.398438 26.640625 23.398438 26.339844 C 23.398438 25.234375 23.398438 24.125 23.398438 22.898438 M 28.566406 21.402344 C 28.722656 21.621094 28.882812 21.839844 29.082031 22.113281 C 29.136719 21.828125 29.183594 21.574219 29.242188 21.234375 C 28.984375 21.265625 28.78125 21.285156 28.566406 21.402344 M 27.8125 23.082031 C 27.707031 22.996094 27.601562 22.910156 27.496094 22.824219 C 27.386719 22.988281 27.28125 23.15625 27.171875 23.320312 C 27.21875 23.363281 27.265625 23.40625 27.3125 23.445312 C 27.464844 23.355469 27.621094 23.261719 27.8125 23.082031 M 25.558594 26.019531 C 25.484375 26.007812 25.410156 25.992188 25.335938 25.976562 C 25.335938 26.03125 25.332031 26.085938 25.332031 26.136719 C 25.410156 26.125 25.484375 26.113281 25.558594 26.019531 M 25.988281 25.589844 C 25.988281 25.640625 25.984375 25.691406 25.984375 25.742188 C 26.007812 25.742188 26.046875 25.742188 26.046875 25.742188 C 26.050781 25.691406 26.050781 25.640625 25.988281 25.589844 Z M 25.988281 25.589844 "/>
<path style=" stroke:none;fill-rule:nonzero;fill:rgb(16.470589%,16.078432%,16.078432%);fill-opacity:1;" d="M 15.945312 19.15625 C 15.945312 19.292969 15.945312 19.425781 15.917969 19.625 C 15.871094 19.742188 15.847656 19.796875 15.828125 19.847656 C 13.832031 19.847656 11.839844 19.847656 9.8125 19.847656 C 9.8125 17.824219 9.8125 15.792969 9.8125 13.671875 C 10.105469 13.671875 10.417969 13.671875 10.792969 13.722656 C 10.894531 13.828125 10.9375 13.886719 10.980469 13.945312 C 10.855469 14.074219 10.75 14.28125 10.601562 14.316406 C 10.125 14.433594 9.945312 14.691406 10.011719 15.171875 C 10.058594 15.488281 10.003906 15.824219 10.078125 16.128906 C 10.167969 16.519531 10.3125 16.914062 10.878906 16.96875 C 11.175781 17.039062 11.40625 17.128906 11.628906 17.261719 C 11.582031 17.484375 11.539062 17.664062 11.457031 17.84375 C 11.316406 17.917969 11.214844 17.992188 11.066406 18.078125 C 10.917969 18.097656 10.816406 18.101562 10.660156 18.109375 C 9.960938 18.179688 9.90625 18.332031 10.304688 18.957031 C 10.433594 18.894531 10.558594 18.828125 10.714844 18.8125 C 11.78125 18.886719 12.820312 18.90625 13.859375 18.925781 C 13.746094 19.003906 13.632812 19.144531 13.519531 19.144531 C 12.742188 19.15625 11.964844 19.121094 11.1875 19.136719 C 11.035156 19.136719 10.886719 19.277344 10.738281 19.351562 C 10.851562 19.453125 10.960938 19.636719 11.082031 19.644531 C 11.6875 19.679688 12.292969 19.683594 12.898438 19.671875 C 13.519531 19.660156 14.144531 19.617188 14.6875 19.59375 C 14.910156 19.347656 15.117188 19.121094 15.398438 18.929688 C 15.632812 19.027344 15.789062 19.09375 15.945312 19.15625 M 10.390625 19.621094 C 10.390625 19.621094 10.382812 19.605469 10.390625 19.621094 Z M 10.390625 19.621094 "/>
<path style=" stroke:none;fill-rule:nonzero;fill:rgb(74.509805%,31.37255%,32.941177%);fill-opacity:1;" d="M 18.3125 29.125 C 18.304688 29.554688 18.285156 29.925781 18.210938 30.300781 C 18.152344 30.1875 18.152344 30.074219 18.15625 29.898438 C 18.164062 27.128906 18.167969 24.421875 18.160156 21.710938 C 18.160156 21.511719 18.074219 21.308594 17.964844 21.105469 C 15.570312 21.105469 13.234375 21.097656 10.894531 21.117188 C 10.652344 21.121094 10.414062 21.296875 10.136719 21.375 C 10.042969 21.273438 9.988281 21.191406 9.929688 21.109375 C 10.082031 21.058594 10.234375 20.96875 10.386719 20.96875 C 12.914062 20.960938 15.4375 20.960938 17.964844 20.964844 C 18.046875 20.964844 18.132812 20.984375 18.304688 21.011719 C 18.304688 23.699219 18.304688 26.382812 18.3125 29.125 Z M 18.3125 29.125 "/>
<path style=" stroke:none;fill-rule:nonzero;fill:rgb(28.627452%,27.843139%,28.235295%);fill-opacity:1;" d="M 28.28125 19.886719 C 28.722656 19.8125 29.222656 19.714844 29.722656 19.714844 C 30.199219 19.71875 30.386719 19.578125 30.367188 19.085938 C 30.332031 18.371094 30.371094 17.65625 30.351562 16.941406 C 30.347656 16.742188 30.25 16.546875 30.179688 16.292969 C 30.195312 16.28125 30.300781 16.183594 30.4375 16.054688 C 30.464844 17.292969 30.464844 18.558594 30.464844 19.90625 C 29.75 19.90625 29.046875 19.90625 28.28125 19.886719 Z M 28.28125 19.886719 "/>
<path style=" stroke:none;fill-rule:nonzero;fill:rgb(98.039216%,94.509804%,94.509804%);fill-opacity:1;" d="M 9.886719 21.113281 C 9.988281 21.191406 10.042969 21.273438 10.152344 21.402344 C 10.234375 21.476562 10.269531 21.496094 10.324219 21.535156 C 10.371094 21.59375 10.410156 21.617188 10.453125 21.671875 C 10.460938 21.699219 10.472656 21.761719 10.464844 21.796875 C 10.5 21.855469 10.539062 21.882812 10.578125 21.902344 C 10.578125 21.898438 10.566406 21.902344 10.574219 21.933594 C 10.621094 21.996094 10.65625 22.023438 10.695312 22.039062 C 10.695312 22.03125 10.6875 22.046875 10.695312 22.089844 C 10.839844 22.269531 10.96875 22.410156 11.105469 22.546875 C 11.109375 22.542969 11.097656 22.546875 11.105469 22.582031 C 11.148438 22.640625 11.1875 22.667969 11.230469 22.683594 C 11.230469 22.679688 11.21875 22.683594 11.226562 22.722656 C 11.277344 22.789062 11.316406 22.816406 11.363281 22.867188 C 11.382812 22.921875 11.402344 22.945312 11.445312 22.988281 C 11.472656 23.035156 11.488281 23.046875 11.523438 23.101562 C 11.691406 23.296875 11.84375 23.457031 11.996094 23.601562 C 12 23.589844 11.988281 23.613281 11.992188 23.648438 C 12.035156 23.753906 12.074219 23.820312 12.09375 23.90625 C 12.070312 23.929688 12.023438 23.976562 12.023438 23.976562 C 11.667969 23.617188 11.296875 23.273438 10.957031 22.902344 C 10.582031 22.492188 10.21875 22.070312 9.886719 21.625 C 9.800781 21.511719 9.851562 21.292969 9.886719 21.113281 Z M 9.886719 21.113281 "/>
<path style=" stroke:none;fill-rule:nonzero;fill:rgb(1.176471%,1.176471%,1.176471%);fill-opacity:1;" d="M 20.84375 19.691406 C 22.375 19.714844 23.90625 19.734375 25.457031 19.800781 C 24.003906 19.851562 22.53125 19.863281 20.992188 19.832031 C 20.898438 19.761719 20.871094 19.726562 20.84375 19.691406 Z M 20.84375 19.691406 "/>
<path style=" stroke:none;fill-rule:nonzero;fill:rgb(1.176471%,1.176471%,1.176471%);fill-opacity:1;" d="M 15.886719 19.863281 C 15.847656 19.796875 15.871094 19.742188 15.917969 19.675781 C 17.175781 19.664062 18.40625 19.667969 19.636719 19.675781 C 19.867188 19.679688 20.101562 19.722656 20.371094 19.789062 C 18.917969 19.847656 17.433594 19.859375 15.886719 19.863281 Z M 15.886719 19.863281 "/>
<path style=" stroke:none;fill-rule:nonzero;fill:rgb(1.176471%,1.176471%,1.176471%);fill-opacity:1;" d="M 22.011719 12.59375 C 21.960938 12.496094 21.960938 12.410156 21.960938 12.277344 C 22.113281 12.117188 22.265625 11.996094 22.425781 11.886719 C 23.027344 11.464844 23.246094 11.542969 23.492188 12.332031 C 23.082031 12.449219 22.71875 12.515625 22.355469 12.578125 C 22.257812 12.589844 22.160156 12.597656 22.011719 12.59375 Z M 22.011719 12.59375 "/>
<path style=" stroke:none;fill-rule:nonzero;fill:rgb(98.039216%,94.509804%,94.509804%);fill-opacity:1;" d="M 12.828125 24.867188 C 12.375 24.78125 11.902344 24.710938 12.023438 24.027344 C 12.023438 23.976562 12.070312 23.929688 12.121094 23.933594 C 12.246094 24 12.324219 24.0625 12.402344 24.121094 C 12.40625 24.117188 12.394531 24.117188 12.402344 24.152344 C 12.449219 24.214844 12.488281 24.242188 12.527344 24.261719 C 12.523438 24.253906 12.515625 24.265625 12.523438 24.304688 C 12.65625 24.496094 12.777344 24.648438 12.894531 24.796875 C 12.894531 24.796875 12.851562 24.84375 12.828125 24.867188 Z M 12.828125 24.867188 "/>
<path style=" stroke:none;fill-rule:nonzero;fill:rgb(12.54902%,9.019608%,9.019608%);fill-opacity:1;" d="M 22.414062 12.59375 C 22.71875 12.515625 23.082031 12.449219 23.492188 12.382812 C 23.59375 12.378906 23.648438 12.378906 23.738281 12.375 C 23.757812 12.429688 23.738281 12.484375 23.695312 12.5625 C 23.273438 12.589844 22.875 12.601562 22.414062 12.59375 Z M 22.414062 12.59375 "/>
<path style=" stroke:none;fill-rule:nonzero;fill:rgb(28.627452%,27.843139%,28.235295%);fill-opacity:1;" d="M 20.804688 19.695312 C 20.871094 19.726562 20.898438 19.761719 20.933594 19.828125 C 20.824219 19.875 20.707031 19.890625 20.554688 19.886719 C 20.597656 19.8125 20.683594 19.757812 20.804688 19.695312 Z M 20.804688 19.695312 "/>
<path style=" stroke:none;fill-rule:nonzero;fill:rgb(28.627452%,27.843139%,28.235295%);fill-opacity:1;" d="M 26.445312 19.882812 C 26.523438 19.84375 26.652344 19.824219 26.796875 19.835938 C 26.703125 19.878906 26.597656 19.890625 26.445312 19.882812 Z M 26.445312 19.882812 "/>
<path style=" stroke:none;fill-rule:nonzero;fill:rgb(12.941177%,11.764706%,12.156863%);fill-opacity:1;" d="M 26.640625 25.511719 C 26.519531 25.484375 26.425781 25.433594 26.332031 25.378906 C 26.425781 25.382812 26.519531 25.382812 26.648438 25.402344 C 26.679688 25.4375 26.671875 25.460938 26.640625 25.511719 Z M 26.640625 25.511719 "/>
<path style=" stroke:none;fill-rule:nonzero;fill:rgb(5.490196%,4.705882%,5.098039%);fill-opacity:1;" d="M 14.726562 13.6875 C 14.730469 13.757812 14.6875 13.824219 14.648438 13.886719 C 14.605469 13.847656 14.5625 13.808594 14.515625 13.734375 C 14.570312 13.691406 14.625 13.683594 14.726562 13.6875 Z M 14.726562 13.6875 "/>
<path style=" stroke:none;fill-rule:nonzero;fill:rgb(5.490196%,4.705882%,5.098039%);fill-opacity:1;" d="M 15.25 13.6875 C 15.25 13.761719 15.210938 13.824219 15.171875 13.886719 C 15.128906 13.847656 15.085938 13.808594 15.039062 13.734375 C 15.09375 13.691406 15.148438 13.683594 15.25 13.6875 Z M 15.25 13.6875 "/>
<path style=" stroke:none;fill-rule:nonzero;fill:rgb(5.490196%,4.705882%,5.098039%);fill-opacity:1;" d="M 10.980469 13.902344 C 10.9375 13.886719 10.894531 13.828125 10.851562 13.734375 C 10.851562 13.695312 10.914062 13.679688 10.945312 13.6875 C 10.980469 13.75 10.980469 13.804688 10.980469 13.902344 Z M 10.980469 13.902344 "/>
<path style=" stroke:none;fill-rule:nonzero;fill:rgb(5.490196%,4.705882%,5.098039%);fill-opacity:1;" d="M 13.953125 13.6875 C 13.964844 13.75 13.945312 13.804688 13.921875 13.859375 C 13.902344 13.824219 13.882812 13.792969 13.859375 13.726562 C 13.878906 13.691406 13.898438 13.6875 13.953125 13.6875 Z M 13.953125 13.6875 "/>
<path style=" stroke:none;fill-rule:nonzero;fill:rgb(5.490196%,4.705882%,5.098039%);fill-opacity:1;" d="M 24.933594 13.6875 C 24.945312 13.75 24.921875 13.804688 24.902344 13.855469 C 24.882812 13.824219 24.863281 13.792969 24.839844 13.726562 C 24.839844 13.695312 24.902344 13.683594 24.933594 13.6875 Z M 24.933594 13.6875 "/>
<path style=" stroke:none;fill-rule:nonzero;fill:rgb(5.490196%,4.705882%,5.098039%);fill-opacity:1;" d="M 26.242188 13.6875 C 26.253906 13.75 26.230469 13.804688 26.210938 13.855469 C 26.191406 13.824219 26.167969 13.792969 26.148438 13.726562 C 26.167969 13.691406 26.1875 13.6875 26.242188 13.6875 Z M 26.242188 13.6875 "/>
<path style=" stroke:none;fill-rule:nonzero;fill:rgb(5.490196%,4.705882%,5.098039%);fill-opacity:1;" d="M 30.457031 13.773438 C 30.410156 13.800781 30.378906 13.78125 30.34375 13.722656 C 30.371094 13.707031 30.417969 13.722656 30.457031 13.773438 Z M 30.457031 13.773438 "/>
<path style=" stroke:none;fill-rule:nonzero;fill:rgb(79.607844%,27.058825%,30.19608%);fill-opacity:1;" d="M 18.445312 10.378906 C 17.820312 10.800781 18.480469 11.226562 18.34375 11.722656 C 18.15625 11.652344 17.910156 11.632812 17.773438 11.5 C 17.453125 11.191406 17.183594 11.21875 16.871094 11.539062 C 16.710938 11.621094 16.574219 11.667969 16.285156 11.761719 C 16.375 11.363281 16.445312 11.058594 16.578125 10.738281 C 16.660156 10.875 16.671875 11.027344 16.695312 11.261719 C 16.964844 11.136719 17.175781 11.042969 17.410156 10.980469 C 17.601562 11.085938 17.765625 11.152344 17.960938 11.230469 C 18.007812 10.8125 18.046875 10.484375 18.0625 10.351562 C 17.828125 10.046875 17.671875 9.84375 17.519531 9.589844 C 17.519531 9.441406 17.523438 9.339844 17.527344 9.238281 C 17.746094 9.898438 18.4375 9.695312 18.925781 9.976562 C 18.75 10.113281 18.609375 10.226562 18.445312 10.378906 Z M 18.445312 10.378906 "/>
<path style=" stroke:none;fill-rule:nonzero;fill:rgb(93.333334%,20.392157%,24.313726%);fill-opacity:1;" d="M 17.523438 9.242188 C 17.523438 9.339844 17.519531 9.441406 17.472656 9.597656 C 16.792969 10.0625 17.21875 10.511719 17.382812 10.945312 C 17.175781 11.042969 16.964844 11.136719 16.695312 11.261719 C 16.671875 11.027344 16.660156 10.875 16.613281 10.703125 C 16.574219 10.679688 16.570312 10.632812 16.566406 10.574219 C 16.519531 10.5 16.476562 10.480469 16.4375 10.464844 C 16.4375 10.464844 16.429688 10.457031 16.429688 10.417969 C 16.53125 10.179688 16.628906 9.976562 16.726562 9.773438 C 16.726562 9.773438 16.785156 9.761719 16.851562 9.746094 C 16.941406 9.652344 16.960938 9.582031 16.984375 9.507812 C 16.984375 9.507812 16.992188 9.507812 17.027344 9.484375 C 17.21875 9.386719 17.375 9.316406 17.527344 9.242188 C 17.527344 9.242188 17.523438 9.246094 17.523438 9.242188 Z M 17.523438 9.242188 "/>
<path style=" stroke:none;fill-rule:nonzero;fill:rgb(79.607844%,27.058825%,30.19608%);fill-opacity:1;" d="M 16.675781 9.765625 C 16.628906 9.976562 16.53125 10.179688 16.429688 10.421875 C 16.226562 10.316406 16.027344 10.167969 15.828125 10.019531 C 15.839844 9.960938 15.851562 9.902344 15.863281 9.84375 C 16.117188 9.8125 16.367188 9.785156 16.675781 9.765625 Z M 16.675781 9.765625 "/>
<path style=" stroke:none;fill-rule:nonzero;fill:rgb(79.607844%,27.058825%,30.19608%);fill-opacity:1;" d="M 17.527344 9.195312 C 17.375 9.316406 17.21875 9.386719 17.023438 9.480469 C 17.0625 9.25 17.136719 9 17.210938 8.746094 C 17.269531 8.753906 17.332031 8.757812 17.394531 8.765625 C 17.4375 8.894531 17.480469 9.023438 17.527344 9.195312 Z M 17.527344 9.195312 "/>
<path style=" stroke:none;fill-rule:nonzero;fill:rgb(79.607844%,27.058825%,30.19608%);fill-opacity:1;" d="M 16.953125 9.527344 C 16.960938 9.582031 16.941406 9.652344 16.882812 9.742188 C 16.871094 9.6875 16.898438 9.617188 16.953125 9.527344 Z M 16.953125 9.527344 "/>
<path style=" stroke:none;fill-rule:nonzero;fill:rgb(79.607844%,27.058825%,30.19608%);fill-opacity:1;" d="M 16.445312 10.496094 C 16.476562 10.480469 16.519531 10.5 16.566406 10.550781 C 16.535156 10.566406 16.496094 10.546875 16.445312 10.496094 Z M 16.445312 10.496094 "/>
<path style=" stroke:none;fill-rule:nonzero;fill:rgb(91.764706%,20%,21.960784%);fill-opacity:1;" d="M 10.472656 21.761719 C 10.472656 21.761719 10.460938 21.699219 10.441406 21.636719 C 10.386719 21.550781 10.351562 21.527344 10.3125 21.503906 C 10.269531 21.496094 10.234375 21.476562 10.1875 21.421875 C 10.414062 21.296875 10.652344 21.121094 10.894531 21.117188 C 13.234375 21.097656 15.570312 21.105469 17.972656 21.167969 C 18.035156 23.914062 18.035156 26.597656 18.042969 29.277344 C 18.042969 29.507812 18.113281 29.734375 18.152344 29.960938 C 18.152344 30.074219 18.152344 30.1875 18.167969 30.332031 C 18.167969 30.53125 18.148438 30.695312 18.132812 30.859375 C 18.078125 30.894531 18.019531 30.929688 17.964844 30.964844 C 16.429688 29.054688 14.898438 27.144531 13.347656 25.144531 C 13.058594 24.792969 12.785156 24.527344 12.515625 24.265625 C 12.515625 24.265625 12.523438 24.253906 12.519531 24.222656 C 12.476562 24.167969 12.433594 24.140625 12.394531 24.117188 C 12.394531 24.117188 12.40625 24.117188 12.410156 24.070312 C 12.273438 23.886719 12.128906 23.75 11.988281 23.613281 C 11.988281 23.613281 12 23.589844 12.003906 23.554688 C 11.890625 23.367188 11.773438 23.210938 11.621094 23.027344 C 11.539062 22.984375 11.488281 22.96875 11.4375 22.957031 C 11.402344 22.945312 11.382812 22.921875 11.355469 22.828125 C 11.304688 22.738281 11.261719 22.710938 11.21875 22.683594 C 11.21875 22.683594 11.230469 22.679688 11.222656 22.648438 C 11.175781 22.597656 11.136719 22.570312 11.097656 22.546875 C 11.097656 22.546875 11.109375 22.542969 11.105469 22.5 C 10.964844 22.320312 10.824219 22.183594 10.6875 22.046875 C 10.6875 22.046875 10.695312 22.03125 10.691406 22.003906 C 10.644531 21.953125 10.605469 21.925781 10.566406 21.902344 C 10.566406 21.902344 10.578125 21.898438 10.570312 21.871094 C 10.542969 21.804688 10.515625 21.777344 10.472656 21.761719 Z M 10.472656 21.761719 "/>
<path style=" stroke:none;fill-rule:nonzero;fill:rgb(75.686276%,24.705882%,26.274511%);fill-opacity:1;" d="M 12.523438 24.304688 C 12.785156 24.527344 13.058594 24.792969 13.332031 25.101562 C 13.207031 25.050781 13.082031 24.953125 12.925781 24.824219 C 12.777344 24.648438 12.65625 24.496094 12.523438 24.304688 Z M 12.523438 24.304688 "/>
<path style=" stroke:none;fill-rule:nonzero;fill:rgb(97.254902%,86.274511%,14.901961%);fill-opacity:1;" d="M 11.894531 10.910156 C 11.414062 10.851562 11.078125 10.695312 11.125 10.167969 C 11.363281 10.191406 11.589844 10.179688 11.796875 10.242188 C 11.945312 10.285156 12.132812 10.402344 12.171875 10.527344 C 12.199219 10.621094 12.023438 10.777344 11.894531 10.910156 Z M 11.894531 10.910156 "/>
<path style=" stroke:none;fill-rule:nonzero;fill:rgb(86.274511%,21.960784%,24.705882%);fill-opacity:1;" d="M 23.074219 9 C 23.148438 9.15625 23.175781 9.304688 23.242188 9.484375 C 23.277344 9.507812 23.296875 9.542969 23.300781 9.601562 C 23.34375 9.691406 23.386719 9.71875 23.429688 9.75 C 23.679688 9.867188 23.929688 9.984375 24.179688 10.097656 C 24.101562 10.128906 24.027344 10.160156 23.949219 10.191406 C 23.921875 10.496094 23.894531 10.800781 23.863281 11.105469 C 23.851562 11.261719 23.835938 11.417969 23.824219 11.574219 C 23.679688 11.523438 23.539062 11.441406 23.390625 11.425781 C 23.136719 11.402344 22.867188 11.375 22.621094 11.429688 C 22.378906 11.480469 22.160156 11.628906 21.878906 11.738281 C 21.832031 11.644531 21.835938 11.546875 21.839844 11.402344 C 22.433594 10.796875 21.914062 10.433594 21.542969 10.035156 C 21.90625 9.863281 22.21875 9.71875 22.605469 9.511719 C 22.699219 9.296875 22.71875 9.140625 22.738281 8.980469 C 22.738281 8.980469 22.742188 8.988281 22.738281 8.984375 C 22.832031 8.988281 22.929688 8.992188 23.074219 9 Z M 23.074219 9 "/>
<path style=" stroke:none;fill-rule:nonzero;fill:rgb(74.509805%,31.37255%,32.941177%);fill-opacity:1;" d="M 23.417969 9.714844 C 23.386719 9.71875 23.34375 9.691406 23.296875 9.617188 C 23.328125 9.609375 23.367188 9.644531 23.417969 9.714844 Z M 23.417969 9.714844 "/>
<path style=" stroke:none;fill-rule:nonzero;fill:rgb(74.509805%,31.37255%,32.941177%);fill-opacity:1;" d="M 22.703125 9.011719 C 22.71875 9.140625 22.699219 9.296875 22.640625 9.480469 C 22.625 9.355469 22.644531 9.199219 22.703125 9.011719 Z M 22.703125 9.011719 "/>
<path style=" stroke:none;fill-rule:nonzero;fill:rgb(96.862745%,96.470588%,96.862745%);fill-opacity:1;" d="M 13.898438 18.914062 C 12.820312 18.90625 11.78125 18.886719 10.726562 18.761719 C 10.710938 18.472656 10.714844 18.292969 10.714844 18.109375 C 10.816406 18.101562 10.917969 18.097656 11.113281 18.089844 C 11.957031 18.078125 12.707031 18.074219 13.503906 18.070312 C 13.601562 17.957031 13.660156 17.839844 13.71875 17.675781 C 13.71875 17.574219 13.714844 17.519531 13.71875 17.421875 C 13.691406 17.34375 13.660156 17.304688 13.59375 17.242188 C 13.488281 17.21875 13.410156 17.21875 13.285156 17.214844 C 13.140625 17.210938 13.039062 17.214844 12.882812 17.207031 C 12.515625 17.203125 12.207031 17.210938 11.851562 17.210938 C 11.75 17.207031 11.691406 17.210938 11.636719 17.21875 C 11.40625 17.128906 11.175781 17.039062 10.90625 16.929688 C 10.769531 16.679688 10.617188 16.453125 10.597656 16.214844 C 10.488281 14.878906 10.761719 14.597656 12.117188 14.597656 C 12.832031 14.597656 13.546875 14.597656 14.351562 14.59375 C 14.445312 14.589844 14.507812 14.574219 14.507812 14.574219 C 14.550781 14.84375 14.59375 15.109375 14.605469 15.441406 C 14.574219 15.5 14.511719 15.515625 14.511719 15.515625 C 13.632812 15.507812 12.757812 15.496094 11.785156 15.5 C 11.667969 15.554688 11.648438 15.597656 11.628906 15.636719 C 11.609375 15.691406 11.585938 15.746094 11.574219 15.898438 C 11.632812 16.535156 12.027344 16.257812 12.289062 16.292969 C 12.347656 16.300781 12.40625 16.308594 12.546875 16.316406 C 12.695312 16.308594 12.753906 16.300781 12.8125 16.292969 C 13.121094 16.304688 13.429688 16.3125 13.824219 16.332031 C 13.929688 16.34375 13.953125 16.351562 13.972656 16.359375 C 14.855469 16.699219 14.601562 17.46875 14.621094 18.21875 C 14.441406 18.507812 14.28125 18.703125 14.121094 18.898438 C 14.058594 18.898438 14 18.898438 13.898438 18.914062 Z M 13.898438 18.914062 "/>
<path style=" stroke:none;fill-rule:nonzero;fill:rgb(96.078432%,96.078432%,96.078432%);fill-opacity:1;" d="M 15.667969 18.632812 C 15.667969 17.304688 15.667969 15.976562 15.667969 14.597656 C 16.730469 14.597656 17.71875 14.597656 18.796875 14.59375 C 18.890625 14.59375 18.953125 14.589844 18.953125 14.589844 C 19.585938 15.035156 19.890625 16.027344 19.507812 16.671875 C 19.363281 16.917969 19.007812 17.101562 18.710938 17.179688 C 18.386719 17.265625 18.023438 17.199219 17.675781 17.199219 C 17.332031 17.199219 16.988281 17.199219 16.566406 17.199219 C 16.566406 17.738281 16.566406 18.246094 16.511719 18.820312 C 16.203125 18.773438 15.785156 19.164062 15.667969 18.632812 M 18.054688 15.488281 C 17.613281 15.496094 17.171875 15.503906 16.617188 15.535156 C 16.601562 15.78125 16.585938 16.027344 16.570312 16.292969 C 17.105469 16.292969 17.574219 16.292969 18.125 16.332031 C 18.183594 16.316406 18.242188 16.304688 18.410156 16.3125 C 18.839844 16.058594 18.851562 15.761719 18.367188 15.496094 C 18.34375 15.503906 18.320312 15.511719 18.234375 15.5 C 18.234375 15.5 18.171875 15.511719 18.054688 15.488281 Z M 18.054688 15.488281 "/>
<path style=" stroke:none;fill-rule:nonzero;fill:rgb(98.039216%,97.254902%,97.647059%);fill-opacity:1;" d="M 26.554688 15.632812 C 26.546875 16.332031 26.539062 17.03125 26.546875 17.84375 C 27.1875 18.003906 27.8125 18.054688 28.4375 18.074219 C 28.492188 18.074219 28.554688 17.84375 28.609375 17.722656 C 28.886719 17.59375 29.164062 17.460938 29.484375 17.3125 C 29.632812 18.714844 29.457031 18.914062 28.25 18.914062 C 27.683594 18.914062 27.117188 18.921875 26.554688 18.914062 C 25.941406 18.90625 25.644531 18.5625 25.632812 17.976562 C 25.617188 17.171875 25.613281 16.371094 25.632812 15.566406 C 25.648438 14.957031 26.007812 14.609375 26.617188 14.597656 C 27.289062 14.582031 27.964844 14.578125 28.640625 14.597656 C 29.382812 14.625 29.871094 15.414062 29.507812 16.050781 C 29.421875 16.199219 29.03125 16.179688 28.742188 16.148438 C 28.632812 15.878906 28.566406 15.695312 28.496094 15.515625 C 27.925781 15.503906 27.355469 15.496094 26.6875 15.5 C 26.582031 15.554688 26.566406 15.59375 26.554688 15.632812 Z M 26.554688 15.632812 "/>
<path style=" stroke:none;fill-rule:nonzero;fill:rgb(96.470588%,95.686275%,96.078432%);fill-opacity:1;" d="M 20.78125 14.574219 C 21.964844 14.582031 23.144531 14.585938 24.417969 14.59375 C 24.507812 14.589844 24.570312 14.609375 24.570312 14.609375 C 24.578125 15.621094 24.578125 15.621094 23.582031 15.621094 C 23.132812 15.621094 22.683594 15.625 22.160156 15.59375 C 22.046875 15.546875 22.003906 15.53125 21.964844 15.515625 C 21.902344 15.507812 21.84375 15.496094 21.703125 15.496094 C 21.601562 15.546875 21.582031 15.59375 21.566406 15.636719 C 21.554688 15.777344 21.546875 15.914062 21.566406 16.164062 C 22.285156 16.285156 22.976562 16.296875 23.671875 16.308594 C 23.6875 16.582031 23.703125 16.855469 23.726562 17.199219 C 23.058594 17.199219 22.4375 17.199219 21.71875 17.203125 C 21.601562 17.25 21.585938 17.289062 21.570312 17.328125 C 21.558594 17.425781 21.546875 17.527344 21.542969 17.714844 C 21.550781 17.863281 21.558594 17.921875 21.5625 17.980469 C 21.546875 18.277344 21.527344 18.570312 21.417969 18.898438 C 21.148438 18.941406 20.96875 18.953125 20.789062 18.960938 C 20.746094 18.761719 20.667969 18.566406 20.664062 18.363281 C 20.652344 17.152344 20.660156 15.941406 20.691406 14.660156 C 20.71875 14.589844 20.78125 14.574219 20.78125 14.574219 Z M 20.78125 14.574219 "/>
<path style=" stroke:none;fill-rule:nonzero;fill:rgb(5.490196%,4.705882%,5.098039%);fill-opacity:1;" d="M 28.558594 17.730469 C 28.554688 17.84375 28.492188 18.074219 28.4375 18.074219 C 27.8125 18.054688 27.1875 18.003906 26.558594 17.90625 C 27.203125 17.8125 27.851562 17.773438 28.558594 17.730469 Z M 28.558594 17.730469 "/>
<path style=" stroke:none;fill-rule:nonzero;fill:rgb(16.470589%,16.078432%,16.078432%);fill-opacity:1;" d="M 14.121094 18.945312 C 14.28125 18.703125 14.441406 18.507812 14.625 18.277344 C 14.886719 18.941406 14.792969 19.183594 14.28125 19.179688 C 14.226562 19.179688 14.175781 19.054688 14.121094 18.945312 M 14.300781 18.953125 C 14.300781 18.953125 14.316406 18.945312 14.300781 18.953125 Z M 14.300781 18.953125 "/>
<path style=" stroke:none;fill-rule:nonzero;fill:rgb(7.058824%,5.882353%,6.27451%);fill-opacity:1;" d="M 15.625 18.640625 C 15.785156 19.164062 16.203125 18.773438 16.511719 18.878906 C 16.664062 19.457031 16.195312 19.007812 16 19.15625 C 15.789062 19.09375 15.632812 19.027344 15.449219 18.925781 C 15.476562 18.808594 15.53125 18.726562 15.625 18.640625 Z M 15.625 18.640625 "/>
<path style=" stroke:none;fill-rule:nonzero;fill:rgb(1.176471%,1.176471%,1.176471%);fill-opacity:1;" d="M 23.636719 16.265625 C 22.976562 16.296875 22.285156 16.285156 21.578125 16.214844 C 22.242188 16.175781 22.921875 16.199219 23.636719 16.265625 Z M 23.636719 16.265625 "/>
<path style=" stroke:none;fill-rule:nonzero;fill:rgb(5.490196%,4.705882%,5.098039%);fill-opacity:1;" d="M 20.804688 19.003906 C 20.96875 18.953125 21.148438 18.941406 21.378906 18.941406 C 21.230469 18.980469 21.023438 19.011719 20.804688 19.003906 Z M 20.804688 19.003906 "/>
<path style=" stroke:none;fill-rule:nonzero;fill:rgb(5.490196%,4.705882%,5.098039%);fill-opacity:1;" d="M 28.496094 15.5625 C 28.566406 15.695312 28.632812 15.878906 28.707031 16.105469 C 28.640625 15.972656 28.566406 15.792969 28.496094 15.5625 Z M 28.496094 15.5625 "/>
<path style=" stroke:none;fill-rule:nonzero;fill:rgb(3.137255%,1.568628%,1.960784%);fill-opacity:1;" d="M 12.261719 16.253906 C 12.027344 16.257812 11.632812 16.535156 11.59375 15.941406 C 11.816406 15.996094 12.023438 16.105469 12.261719 16.253906 Z M 12.261719 16.253906 "/>
<path style=" stroke:none;fill-rule:nonzero;fill:rgb(3.137255%,1.568628%,1.960784%);fill-opacity:1;" d="M 13.972656 16.320312 C 13.953125 16.351562 13.929688 16.34375 13.882812 16.320312 C 13.875 16.25 13.894531 16.203125 13.917969 16.152344 C 13.933594 16.195312 13.953125 16.238281 13.972656 16.320312 Z M 13.972656 16.320312 "/>
<path style=" stroke:none;fill-rule:nonzero;fill:rgb(5.490196%,4.705882%,5.098039%);fill-opacity:1;" d="M 21.597656 17.964844 C 21.558594 17.921875 21.550781 17.863281 21.554688 17.761719 C 21.585938 17.796875 21.609375 17.871094 21.597656 17.964844 Z M 21.597656 17.964844 "/>
<path style=" stroke:none;fill-rule:nonzero;fill:rgb(3.137255%,1.568628%,1.960784%);fill-opacity:1;" d="M 14.511719 15.550781 C 14.511719 15.515625 14.574219 15.5 14.605469 15.492188 C 14.621094 15.546875 14.605469 15.605469 14.589844 15.667969 C 14.566406 15.640625 14.539062 15.609375 14.511719 15.550781 Z M 14.511719 15.550781 "/>
<path style=" stroke:none;fill-rule:nonzero;fill:rgb(3.137255%,1.568628%,1.960784%);fill-opacity:1;" d="M 12.792969 16.261719 C 12.753906 16.300781 12.695312 16.308594 12.589844 16.304688 C 12.625 16.269531 12.699219 16.25 12.792969 16.261719 Z M 12.792969 16.261719 "/>
<path style=" stroke:none;fill-rule:nonzero;fill:rgb(3.137255%,1.568628%,1.960784%);fill-opacity:1;" d="M 20.78125 14.539062 C 20.78125 14.574219 20.71875 14.589844 20.6875 14.601562 C 20.671875 14.550781 20.683594 14.488281 20.699219 14.429688 C 20.722656 14.457031 20.75 14.484375 20.78125 14.539062 Z M 20.78125 14.539062 "/>
<path style=" stroke:none;fill-rule:nonzero;fill:rgb(3.137255%,1.568628%,1.960784%);fill-opacity:1;" d="M 24.570312 14.578125 C 24.570312 14.609375 24.507812 14.589844 24.476562 14.582031 C 24.476562 14.523438 24.503906 14.476562 24.53125 14.425781 C 24.542969 14.464844 24.554688 14.503906 24.570312 14.578125 Z M 24.570312 14.578125 "/>
<path style=" stroke:none;fill-rule:nonzero;fill:rgb(1.176471%,1.176471%,1.176471%);fill-opacity:1;" d="M 21.59375 15.625 C 21.582031 15.59375 21.601562 15.546875 21.65625 15.507812 C 21.6875 15.554688 21.664062 15.589844 21.59375 15.625 Z M 21.59375 15.625 "/>
<path style=" stroke:none;fill-rule:nonzero;fill:rgb(1.176471%,1.176471%,1.176471%);fill-opacity:1;" d="M 21.980469 15.542969 C 22.003906 15.53125 22.046875 15.546875 22.101562 15.59375 C 22.074219 15.617188 22.035156 15.597656 21.980469 15.542969 Z M 21.980469 15.542969 "/>
<path style=" stroke:none;fill-rule:nonzero;fill:rgb(5.490196%,4.705882%,5.098039%);fill-opacity:1;" d="M 26.578125 15.621094 C 26.566406 15.59375 26.582031 15.554688 26.628906 15.515625 C 26.65625 15.554688 26.632812 15.585938 26.578125 15.621094 Z M 26.578125 15.621094 "/>
<path style=" stroke:none;fill-rule:nonzero;fill:rgb(5.490196%,4.705882%,5.098039%);fill-opacity:1;" d="M 21.597656 17.320312 C 21.585938 17.289062 21.601562 17.25 21.660156 17.210938 C 21.683594 17.257812 21.660156 17.289062 21.597656 17.320312 Z M 21.597656 17.320312 "/>
<path style=" stroke:none;fill-rule:nonzero;fill:rgb(3.137255%,1.568628%,1.960784%);fill-opacity:1;" d="M 11.65625 15.625 C 11.648438 15.597656 11.667969 15.554688 11.726562 15.515625 C 11.75 15.558594 11.726562 15.59375 11.65625 15.625 Z M 11.65625 15.625 "/>
<path style=" stroke:none;fill-rule:nonzero;fill:rgb(3.137255%,1.568628%,1.960784%);fill-opacity:1;" d="M 14.496094 14.554688 C 14.507812 14.574219 14.445312 14.589844 14.414062 14.582031 C 14.417969 14.5625 14.449219 14.546875 14.496094 14.554688 Z M 14.496094 14.554688 "/>
<path style=" stroke:none;fill-rule:nonzero;fill:rgb(3.137255%,1.568628%,1.960784%);fill-opacity:1;" d="M 18.941406 14.566406 C 18.953125 14.589844 18.890625 14.59375 18.859375 14.585938 C 18.863281 14.566406 18.898438 14.554688 18.941406 14.566406 Z M 18.941406 14.566406 "/>
<path style=" stroke:none;fill-rule:nonzero;fill:rgb(12.941177%,11.764706%,12.156863%);fill-opacity:1;" d="M 23.398438 22.960938 C 23.398438 24.125 23.398438 25.234375 23.398438 26.339844 C 23.398438 26.640625 23.449219 26.820312 23.761719 27.046875 C 24.042969 27.246094 24.03125 27.847656 24.171875 28.363281 C 23.738281 28.335938 23.492188 28.316406 23.285156 28.300781 C 23.121094 28.65625 22.976562 28.980469 22.828125 29.304688 C 22.765625 29.296875 22.699219 29.285156 22.632812 29.277344 C 22.5 28.84375 22.25 28.414062 22.242188 27.980469 C 22.203125 25.773438 22.226562 23.5625 22.226562 21.296875 C 22.5 21.296875 22.832031 21.203125 22.929688 21.3125 C 23.296875 21.734375 23.753906 21.621094 24.191406 21.625 C 25.367188 21.632812 26.542969 21.617188 27.714844 21.640625 C 27.882812 21.644531 28.046875 21.800781 28.214844 21.886719 C 28.050781 21.976562 27.882812 22.136719 27.71875 22.136719 C 26.523438 22.160156 25.324219 22.175781 24.128906 22.140625 C 23.546875 22.121094 23.324219 22.339844 23.398438 22.960938 Z M 23.398438 22.960938 "/>
<path style=" stroke:none;fill-rule:nonzero;fill:rgb(12.941177%,11.764706%,12.156863%);fill-opacity:1;" d="M 28.574219 21.355469 C 28.78125 21.285156 28.984375 21.265625 29.242188 21.234375 C 29.183594 21.574219 29.136719 21.828125 29.082031 22.113281 C 28.882812 21.839844 28.722656 21.621094 28.574219 21.355469 Z M 28.574219 21.355469 "/>
<path style=" stroke:none;fill-rule:nonzero;fill:rgb(12.941177%,11.764706%,12.156863%);fill-opacity:1;" d="M 27.792969 23.125 C 27.621094 23.261719 27.464844 23.355469 27.3125 23.445312 C 27.265625 23.40625 27.21875 23.363281 27.171875 23.320312 C 27.28125 23.15625 27.386719 22.988281 27.496094 22.824219 C 27.601562 22.910156 27.707031 22.996094 27.792969 23.125 Z M 27.792969 23.125 "/>
<path style=" stroke:none;fill-rule:nonzero;fill:rgb(12.941177%,11.764706%,12.156863%);fill-opacity:1;" d="M 25.558594 26.058594 C 25.484375 26.113281 25.410156 26.125 25.332031 26.136719 C 25.332031 26.085938 25.335938 26.03125 25.335938 25.976562 C 25.410156 25.992188 25.484375 26.007812 25.558594 26.058594 Z M 25.558594 26.058594 "/>
<path style=" stroke:none;fill-rule:nonzero;fill:rgb(12.941177%,11.764706%,12.156863%);fill-opacity:1;" d="M 26.019531 25.589844 C 26.050781 25.640625 26.050781 25.691406 26.046875 25.742188 C 26.046875 25.742188 26.007812 25.742188 25.984375 25.742188 C 25.984375 25.691406 25.988281 25.640625 26.019531 25.589844 Z M 26.019531 25.589844 "/>
<path style=" stroke:none;fill-rule:nonzero;fill:rgb(7.058824%,5.882353%,6.27451%);fill-opacity:1;" d="M 13.707031 17.460938 C 13.714844 17.519531 13.71875 17.574219 13.679688 17.6875 C 13.578125 17.847656 13.519531 17.957031 13.457031 18.066406 C 12.707031 18.074219 11.957031 18.078125 11.164062 18.074219 C 11.214844 17.992188 11.316406 17.917969 11.511719 17.84375 C 11.792969 17.84375 11.976562 17.84375 12.210938 17.84375 C 12.535156 17.761719 12.804688 17.675781 13.117188 17.582031 C 13.21875 17.460938 13.277344 17.339844 13.335938 17.222656 C 13.410156 17.21875 13.488281 17.21875 13.59375 17.277344 C 13.652344 17.378906 13.679688 17.421875 13.707031 17.460938 Z M 13.707031 17.460938 "/>
<path style=" stroke:none;fill-rule:nonzero;fill:rgb(13.725491%,12.54902%,12.941177%);fill-opacity:1;" d="M 10.660156 18.109375 C 10.714844 18.292969 10.710938 18.472656 10.699219 18.707031 C 10.558594 18.828125 10.433594 18.894531 10.304688 18.957031 C 9.90625 18.332031 9.960938 18.179688 10.660156 18.109375 Z M 10.660156 18.109375 "/>
<path style=" stroke:none;fill-rule:nonzero;fill:rgb(13.725491%,12.54902%,12.941177%);fill-opacity:1;" d="M 12.160156 17.839844 C 11.976562 17.84375 11.792969 17.84375 11.554688 17.84375 C 11.539062 17.664062 11.582031 17.484375 11.628906 17.261719 C 11.691406 17.210938 11.75 17.207031 11.859375 17.253906 C 11.992188 17.484375 12.074219 17.664062 12.160156 17.839844 Z M 12.160156 17.839844 "/>
<path style=" stroke:none;fill-rule:nonzero;fill:rgb(77.64706%,19.215687%,20.784314%);fill-opacity:1;" d="M 18.15625 29.898438 C 18.113281 29.734375 18.042969 29.507812 18.042969 29.277344 C 18.035156 26.597656 18.035156 23.914062 18.03125 21.167969 C 18.074219 21.308594 18.160156 21.511719 18.160156 21.710938 C 18.167969 24.421875 18.164062 27.128906 18.15625 29.898438 Z M 18.15625 29.898438 "/>
<path style=" stroke:none;fill-rule:nonzero;fill:rgb(75.686276%,24.705882%,26.274511%);fill-opacity:1;" d="M 11.992188 23.648438 C 12.128906 23.75 12.273438 23.886719 12.40625 24.074219 C 12.324219 24.0625 12.246094 24 12.140625 23.910156 C 12.074219 23.820312 12.035156 23.753906 11.992188 23.648438 Z M 11.992188 23.648438 "/>
<path style=" stroke:none;fill-rule:nonzero;fill:rgb(75.686276%,24.705882%,26.274511%);fill-opacity:1;" d="M 11.652344 23.054688 C 11.773438 23.210938 11.890625 23.367188 12.003906 23.566406 C 11.84375 23.457031 11.691406 23.296875 11.558594 23.101562 C 11.601562 23.058594 11.628906 23.058594 11.652344 23.054688 Z M 11.652344 23.054688 "/>
<path style=" stroke:none;fill-rule:nonzero;fill:rgb(74.509805%,31.37255%,32.941177%);fill-opacity:1;" d="M 10.695312 22.089844 C 10.824219 22.183594 10.964844 22.320312 11.105469 22.503906 C 10.96875 22.410156 10.839844 22.269531 10.695312 22.089844 Z M 10.695312 22.089844 "/>
<path style=" stroke:none;fill-rule:nonzero;fill:rgb(74.509805%,31.37255%,32.941177%);fill-opacity:1;" d="M 11.621094 23.027344 C 11.628906 23.058594 11.601562 23.058594 11.542969 23.0625 C 11.488281 23.046875 11.472656 23.035156 11.445312 22.988281 C 11.488281 22.96875 11.539062 22.984375 11.621094 23.027344 Z M 11.621094 23.027344 "/>
<path style=" stroke:none;fill-rule:nonzero;fill:rgb(74.509805%,31.37255%,32.941177%);fill-opacity:1;" d="M 10.324219 21.535156 C 10.351562 21.527344 10.386719 21.550781 10.4375 21.609375 C 10.410156 21.617188 10.371094 21.59375 10.324219 21.535156 Z M 10.324219 21.535156 "/>
<path style=" stroke:none;fill-rule:nonzero;fill:rgb(74.509805%,31.37255%,32.941177%);fill-opacity:1;" d="M 11.226562 22.722656 C 11.261719 22.710938 11.304688 22.738281 11.351562 22.804688 C 11.316406 22.816406 11.277344 22.789062 11.226562 22.722656 Z M 11.226562 22.722656 "/>
<path style=" stroke:none;fill-rule:nonzero;fill:rgb(74.509805%,31.37255%,32.941177%);fill-opacity:1;" d="M 11.105469 22.582031 C 11.136719 22.570312 11.175781 22.597656 11.222656 22.65625 C 11.1875 22.667969 11.148438 22.640625 11.105469 22.582031 Z M 11.105469 22.582031 "/>
<path style=" stroke:none;fill-rule:nonzero;fill:rgb(74.509805%,31.37255%,32.941177%);fill-opacity:1;" d="M 10.574219 21.933594 C 10.605469 21.925781 10.644531 21.953125 10.691406 22.015625 C 10.65625 22.023438 10.621094 21.996094 10.574219 21.933594 Z M 10.574219 21.933594 "/>
<path style=" stroke:none;fill-rule:nonzero;fill:rgb(74.509805%,31.37255%,32.941177%);fill-opacity:1;" d="M 10.464844 21.796875 C 10.515625 21.777344 10.542969 21.804688 10.570312 21.878906 C 10.539062 21.882812 10.5 21.855469 10.464844 21.796875 Z M 10.464844 21.796875 "/>
<path style=" stroke:none;fill-rule:nonzero;fill:rgb(75.686276%,24.705882%,26.274511%);fill-opacity:1;" d="M 12.402344 24.152344 C 12.433594 24.140625 12.476562 24.167969 12.523438 24.230469 C 12.488281 24.242188 12.449219 24.214844 12.402344 24.152344 Z M 12.402344 24.152344 "/>
<path style=" stroke:none;fill-rule:nonzero;fill:rgb(91.764706%,20%,21.960784%);fill-opacity:1;" d="M 17.410156 10.980469 C 17.21875 10.511719 16.792969 10.0625 17.472656 9.648438 C 17.671875 9.84375 17.828125 10.046875 18.0625 10.351562 C 18.046875 10.484375 18.007812 10.8125 17.960938 11.230469 C 17.765625 11.152344 17.601562 11.085938 17.410156 10.980469 Z M 17.410156 10.980469 "/>
<path style=" stroke:none;fill-rule:nonzero;fill:rgb(16.470589%,16.078432%,16.078432%);fill-opacity:1;" d="M 12.210938 17.84375 C 12.074219 17.664062 11.992188 17.484375 11.902344 17.261719 C 12.207031 17.210938 12.515625 17.203125 12.886719 17.246094 C 12.988281 17.394531 13.03125 17.492188 13.070312 17.589844 C 12.804688 17.675781 12.535156 17.761719 12.210938 17.84375 Z M 12.210938 17.84375 "/>
<path style=" stroke:none;fill-rule:nonzero;fill:rgb(13.725491%,12.54902%,12.941177%);fill-opacity:1;" d="M 13.117188 17.582031 C 13.03125 17.492188 12.988281 17.394531 12.945312 17.257812 C 13.039062 17.214844 13.140625 17.210938 13.285156 17.214844 C 13.277344 17.339844 13.21875 17.460938 13.117188 17.582031 Z M 13.117188 17.582031 "/>
<path style=" stroke:none;fill-rule:nonzero;fill:rgb(16.470589%,16.078432%,16.078432%);fill-opacity:1;" d="M 13.503906 18.070312 C 13.519531 17.957031 13.578125 17.847656 13.675781 17.730469 C 13.660156 17.839844 13.601562 17.957031 13.503906 18.070312 Z M 13.503906 18.070312 "/>
<path style=" stroke:none;fill-rule:nonzero;fill:rgb(16.470589%,16.078432%,16.078432%);fill-opacity:1;" d="M 13.71875 17.421875 C 13.679688 17.421875 13.652344 17.378906 13.625 17.300781 C 13.660156 17.304688 13.691406 17.34375 13.71875 17.421875 Z M 13.71875 17.421875 "/>
<path style=" stroke:none;fill-rule:nonzero;fill:rgb(12.941177%,11.764706%,12.156863%);fill-opacity:1;" d="M 18.300781 16.289062 C 18.242188 16.304688 18.183594 16.316406 18.046875 16.269531 C 17.578125 16.175781 17.1875 16.140625 16.761719 16.105469 C 16.75 15.882812 16.742188 15.699219 16.730469 15.511719 C 17.171875 15.503906 17.613281 15.496094 18.125 15.523438 C 18.230469 15.542969 18.261719 15.53125 18.296875 15.515625 C 18.320312 15.511719 18.34375 15.503906 18.417969 15.546875 C 18.414062 15.828125 18.355469 16.058594 18.300781 16.289062 Z M 18.300781 16.289062 "/>
<path style=" stroke:none;fill-rule:nonzero;fill:rgb(1.176471%,1.176471%,1.176471%);fill-opacity:1;" d="M 16.671875 15.523438 C 16.742188 15.699219 16.75 15.882812 16.761719 16.105469 C 17.1875 16.140625 17.578125 16.175781 18.007812 16.253906 C 17.574219 16.292969 17.105469 16.292969 16.570312 16.292969 C 16.585938 16.027344 16.601562 15.78125 16.671875 15.523438 Z M 16.671875 15.523438 "/>
<path style=" stroke:none;fill-rule:nonzero;fill:rgb(1.176471%,1.176471%,1.176471%);fill-opacity:1;" d="M 18.355469 16.300781 C 18.355469 16.058594 18.414062 15.828125 18.453125 15.554688 C 18.851562 15.761719 18.839844 16.058594 18.355469 16.300781 Z M 18.355469 16.300781 "/>
<path style=" stroke:none;fill-rule:nonzero;fill:rgb(1.176471%,1.176471%,1.176471%);fill-opacity:1;" d="M 18.265625 15.507812 C 18.261719 15.53125 18.230469 15.542969 18.183594 15.535156 C 18.171875 15.511719 18.234375 15.5 18.265625 15.507812 Z M 18.265625 15.507812 "/>
</g>
</svg>
